<svg xmlns="http://www.w3.org/2000/svg" viewBox="0 0 414.36 3319.1">
  <defs>
    <style>
      .cls-1{fill:#fff}.cls-2{fill:#1b9373}.cls-6,.cls-7{stroke:#fff;stroke-miterlimit:10;fill:none}.cls-5{fill:#ffd600}.cls-6{stroke-width:9px}.cls-7{stroke-width:5px}
    </style>
  </defs>
  <g id="Слой_2" data-name="Слой 2">
    <g id="Элементы">
      <path d="M194.55 1747.77c-4.51 2.24-9 5.14-10.21 10.06-1 4.25-3.79 5.67-6.81 7.44l-105.27 61.49c-2.39 1.41-4.4 3-7.83 1.67-3.22-1.21-7.06-.12-10.25 1.45-6 3-11.88 6.28-15.23 12.63a21.93 21.93 0 0 0-2.8 9.79c0 4.57-.86 9-1 13.61-.22 10.37 1.66 20.39 4.58 30.25 2.37 8 4.9 16 7.5 23.91 2.71 8.27 5.68 16.45 8.33 24.73a238 238 0 0 0 9.59 25c3 6.69 11 14.91 22.31 11.75 7.61-2.11 15.35-3.78 22.85-6.36a35.22 35.22 0 0 0 14.52-8.92c2.38-2.52 2.66-6 2.71-9.42.14-9.88-2.73-19.26-4.68-28.78a17.3 17.3 0 0 1 1.7-12.27 2.49 2.49 0 0 1 2.12-1.22 34.93 34.93 0 0 0 21-9.86 18.94 18.94 0 0 0 3.54-4.27 13.91 13.91 0 0 1 5.65-5.32q20.49-11.88 40.89-23.9a12.41 12.41 0 0 1 5.62-1.7c10.8-.8 19.07-6.06 25.2-14.8.68-1 1.36-.74 2.16-.76 5.79-.13 9.77 3.16 13.83 6.8 6 5.39 11.95 10.94 18.84 15.33 5.91 3.78 11.6 3.6 17.58.31 7.65-4.21 13.61-10.36 19.56-16.53 2.72-2.8 5.23-5.82 7.72-8.84 3.88-4.69 3.74-9.86 1.92-15.38-1.86-5.67-5.73-10-9.27-14.48a339.8 339.8 0 0 0-12-14.21c-5.39-6.06-10.92-12-16.4-18-3.73-4.08-7.45-8.16-11.23-12.19-7-7.43-14.16-14.63-22.57-20.52a81.18 81.18 0 0 0-16-8.43c-3.15-1.29-6-3.27-9.45-3.92a23.67 23.67 0 0 0-18.65 3.79m-67.42 50.75l35.61-20.81c.93-.54 1.67-1.28 2.57.29 5.88 10.23 11.89 20.39 17.81 30.58 1.35 2.33.83 3.54-1.41 5.09-3.85 2.67-8 4.85-12 7.22q-27.18 15.94-54.43 31.82c-4.36 2.55-5.68 2.21-8.18-2.07-5.48-9.38-10.91-18.78-16.47-28.11-1-1.64-.69-2.32.89-3.24 11.81-6.79 23.67-13.76 35.54-20.7zm-85 87a31.18 31.18 0 0 1 53-32.92c9.83 15.49 4.92 34.76-10.3 43.8-15.09 8.99-33.65 4.08-42.76-10.8zM202 1755.73c14.69-8.73 34.06-3.38 42.42 11.16a31.21 31.21 0 1 1-54 31.26c-8.32-14.4-3.31-34.44 11.58-42.42zm16.27 69.53c6.32 9.88 2.1 22.7-6.51 28.13a20.92 20.92 0 1 1-22.35-35.39c9.92-6.13 23.59-2.61 28.84 7.26zm-84.14 73.46a20.57 20.57 0 0 1-28.52-7.29c-6.25-10.79-2.54-22.31 6.79-28.3a20.86 20.86 0 1 1 21.73 35.59zm34.33-28.72a7.41 7.41 0 0 1-10.22-2.39 7.9 7.9 0 0 1 2.46-10.49c2.89-1.83 8.29-1.47 10.45 2.68s1.24 7.85-2.69 10.2zm4.27-89.14c-.54-.93-1.06-1.71-1.48-2.55a4.51 4.51 0 0 1 1.29-5.36 3.85 3.85 0 0 1 5.68.65 29.27 29.27 0 0 1 3.39 5.84 3.93 3.93 0 0 1-1.48 4.87 3.8 3.8 0 0 1-4.28.27c-1.76-.84-2.24-2.51-3.12-3.76zm-91 52.72l-1.44-2.45c-1.34-2.19-.54-4.07 1-5.69 1.09-1.16 4.07-.83 5.51.55a12.93 12.93 0 0 1 3.79 6.77c.6 2.88-1.55 4.94-4.52 4.82s-3.22-2.64-4.35-4.04zm74.33 8c-.16-.87-.15-1.77.69-2.21a1.6 1.6 0 1 1 1.56 2.79 1.84 1.84 0 0 1-2.26-.57zm4.39 4.14c.79-.06 1.67-.15 2.2.63a1.58 1.58 0 0 1-.44 2.22 1.56 1.56 0 0 1-2.22-.44c-.61-.77-.1-1.55.45-2.4zm0-2.29c-.78-.78-.26-1.61.41-2a1.32 1.32 0 0 1 2 .41 1.56 1.56 0 0 1-.44 2.35c-.88.59-1.5.12-2-.75zm-4.6 7c-.86-.83-.13-1.61.49-2a1.32 1.32 0 0 1 1.93.49 1.41 1.41 0 0 1-.34 2.15 1.28 1.28 0 0 1-2.11-.68zm-4 .51a1.61 1.61 0 0 1 2.28.59 1.64 1.64 0 0 1-.66 2.17 1.51 1.51 0 0 1-2-.58 1.8 1.8 0 0 1 .36-2.22zm8.88-11.63a1.62 1.62 0 0 1 .27-2.31 1.29 1.29 0 0 1 1.68.06 2.44 2.44 0 0 1 .29.33 1.45 1.45 0 0 1-.26 2.19c-.53.33-1.48.71-2-.31zm-13.27 7.16c.06-.66-.08-1.57.64-2a1.39 1.39 0 0 1 2.06.72c.34.77.56 1.53-.35 2a1.93 1.93 0 0 1-2.37-.76zm-1.87 3.23a2.06 2.06 0 0 1-2.3-.54 1.69 1.69 0 0 1 .6-2.17 1.51 1.51 0 0 1 2.13.67 1.89 1.89 0 0 1-.45 2zm10.3-3.81c-.05-.78-.08-1.67.81-2.1s1.37.22 1.82.89a1.32 1.32 0 0 1-.61 2.06 1.67 1.67 0 0 1-2.04-.89zm-7.85 2.91c1-.44 1.44.12 1.92.78a1.34 1.34 0 0 1-.49 2.1 1.48 1.48 0 0 1-2-.68 1.8 1.8 0 0 1 .53-2.24zm4.24-2.47c.77-.07 1.56-.1 2.05.65a1.51 1.51 0 0 1-.39 2.08 1.39 1.39 0 0 1-2.09-.64c-.54-.97-.02-1.42.41-2.13zm0-1.83c-.54-1.26-.46-2.22.35-2.58a1.46 1.46 0 0 1 1.93.78 1.48 1.48 0 0 1-.55 2c-.62.23-1.57.41-1.77-.24z" class="cls-1"/>
      <path d="M308.44 1892.51c9.13-5.42 14-12.13 15.26-20.94.91-6.47-.59-12.87-3.12-18.93a67.53 67.53 0 0 0-5.15-10.66c-.22-.36-.3-1-.93-.81-.43.11-.52.46-.48.92.71 6.75-3.55 11.18-7.49 15.69a126.55 126.55 0 0 1-17.32 16.85c-5.07 3.94-10.46 7.07-17.07 7.46-.45 0-1-.12-1.16.46-.11.42.29.65.61.88 7.56 5.42 15.09 10.93 24.84 11.68a20.81 20.81 0 0 0 12-2.6M73.79 1986.11a56.55 56.55 0 0 0 12.52 14.73c8.25 6.54 17.33 8.64 27.46 4.83 6.54-2.46 11.78-6.35 14.58-12.93a36.72 36.72 0 0 0 2.69-16.55c-.17-3.34-.59-6.67-.9-10 0-.45 0-1-.59-1.09-.2 0-.53.3-.67.53-4.09 6.78-10.76 10-17.76 12.6a136 136 0 0 1-28 7.09c-3.69.53-6.94-.94-10.13-2.52-.31-.15-.55-.7-.94-.4-.57.45.11.79.28 1.12.46.89 1 1.73 1.49 2.6M67.05 1849.13c-2.27-3.75-7.77-5.36-11.3-3.3-4.71 2.75-6.18 8.15-3.25 12.67 2.77 4.28 7.26 5.21 11.71 2.68a8.7 8.7 0 0 0 2.84-12M45.62 1883c2.3 4.78 8 5.43 12 3.21a8.74 8.74 0 0 0-8.9-15c-4.23 2.53-5.74 8-3.06 11.83M92.22 1855.94c-1.83-3.68-7.59-5.53-11.73-3.17a8.82 8.82 0 0 0-3.42 12c2.31 4 8.1 5.61 11.92 3.16 4.33-2.78 5.73-7.43 3.23-12M70.67 1889.66a8.67 8.67 0 0 0 12 3.2c3.91-2.22 5.29-7.93 3-12-2.13-3.75-7.47-5.5-11-3.37-5.29 3.22-6.73 7.45-4 12.16M237 1773.65c-1.08-1.85-2.13-3.72-3.25-5.54-1.48-2.39-2.62-2.53-5.19-.92l-4.34 2.55c-3.38 1.39-4.85 9.64-2.27 12.2 1.41 1.41 8.35 2.37 10.12 1.38.95-.52 1.88-1.09 2.82-1.64 5.07-3 5.07-3 2.11-8M199.94 1795.16c-1.08-1.85-2.19-3.68-3.23-5.56-1.36-2.46-.92-3.52 1.75-5l4.35-2.54c2.87-2.26 10.77.51 11.74 4 .53 1.92-2 8.43-3.76 9.49-.93.57-1.88 1.1-2.82 1.65-5.07 3-5.07 3-8-2.1M204.85 1765.1c1.86-1.08 3.68-2.2 5.56-3.23 2.47-1.35 3.52-.92 5 1.74l2.54 4.36c2.26 2.87-.51 10.77-4 11.74-1.91.53-8.43-2-9.48-3.76-.58-.93-1.11-1.88-1.66-2.82-3-5.06-3-5.06 2.1-8M226.8 1802.65c1.85-1.08 3.72-2.12 5.54-3.25 2.39-1.48 2.53-2.61.92-5.18l-2.55-4.35c-1.39-3.37-9.63-4.84-12.2-2.26-1.4 1.41-2.36 8.35-1.38 10.11.53 1 1.09 1.89 1.64 2.83 3 5.06 3 5.06 8 2.1M211.81 1829.12c-2.61-6.26-12.53-8.57-18.46-4.79-5.75 3.69-8.39 12.06-4.55 18.44a13.75 13.75 0 0 0 18.79 4.44c5.33-3.24 8.47-12.56 4.22-18.09M116.75 1869.22a13.24 13.24 0 0 0-4.89 18.24 13.53 13.53 0 0 0 23.38-13.62 13.35 13.35 0 0 0-18.49-4.62" class="cls-1"/>
      <path d="M155.56 1849.93a1.39 1.39 0 1 0 .5-1.9 1.39 1.39 0 0 0-.5 1.9M151.11 1852.52a1.39 1.39 0 1 0 .5-1.89 1.39 1.39 0 0 0-.5 1.89M155.68 1845.41a1.38 1.38 0 0 0 1.89.5 1.39 1.39 0 1 0-1.89-.5M151.42 1847.9a1.38 1.38 0 1 0 2.39-1.4 1.38 1.38 0 1 0-2.39 1.4M147.15 1850.39a1.38 1.38 0 1 0 2.39-1.4 1.38 1.38 0 0 0-2.39 1.4" class="cls-2"/>
      <path d="M196.72 1793.56l.88 1.46c.31.58 1.54 2.36 1.45 2.85-.16.8-3 .1-4.1-.23-1.77-.52-1.24-1.73-1.06-3.05.14-1.1.17-2.95 1.06-3 .66 0 1.63 1.63 1.77 2M237.05 1770.14l.85 1.47c.35.56 1.32 2.5 1.8 2.65.77.25 1.51-2.53 1.77-3.69.41-1.8-.91-1.92-2.15-2.41-1-.41-2.67-1.28-3.14-.52-.35.55.64 2.21.87 2.5M230.55 1802.53l-1.45.89c-.55.37-2.46 1.39-2.6 1.87-.22.78 2.58 1.44 3.75 1.67 1.81.36 1.89-1 2.34-2.21.38-1 1.21-2.71.45-3.16-.57-.33-2.2.7-2.49.94M207.11 1761.41l-1.49.82c-.59.3-2.42 1.46-2.9 1.35-.79-.19 0-2.95.38-4.09.58-1.75 1.77-1.17 3.08-1 1.09.18 2.95.27 3 1.16 0 .66-1.69 1.57-2 1.71M149.06 1859.21l18.07-10.7-.82-16.1-30.98 18.35 13.73 8.45zM40.37 793.41l3.9 48A74.59 74.59 0 0 0 144.62 874a132.27 132.27 0 0 0 20.67-17.47c10.45-11.29 12.57-20.71 12.57-20.71L279 780.41s6.09 4 22.77 3.34c10-.39 27-7.36 27-7.36S351 764.27 362 743.93c4-6.32 9.47-28.3 9.47-28.3" class="cls-1"/>
      <path fill="#1b9373" stroke="#fff" stroke-miterlimit="10" stroke-width="4" d="M334 758.43a74.6 74.6 0 1 0-66-133.8l-101.44 53.69L82 723.1C45.54 741.7 30.84 787 49.44 823.45A74.59 74.59 0 0 0 149.79 856a132.27 132.27 0 0 0 20.67-17.47c10.45-11.28 12.54-20.7 12.54-20.7l101.16-55.38s6.09 4 22.77 3.34c10.07-.39 27.07-7.36 27.07-7.36z"/>
      <path d="M289 717.68a17.32 17.32 0 1 1-30.68-16.09l20.38-42.25a17.32 17.32 0 0 1 30.68 16.09zM330.13 725.21a17.33 17.33 0 0 1-30.69-16.09l20.38-42.25A17.33 17.33 0 0 1 350.51 683z" class="cls-1"/>
      <circle cx="117.48" cy="790.4" r="41.37" class="cls-1"/>
      <circle cx="302.25" cy="691.29" r="65.31" fill="none" stroke="#fff" stroke-miterlimit="10" stroke-width="4"/>
      <circle cx="273.64" cy="708.4" r="13.73" class="cls-2"/>
      <circle cx="294" cy="667.39" r="13.73" class="cls-2"/>
      <circle cx="315.74" cy="716.68" r="13.73" class="cls-2"/>
      <circle cx="335.31" cy="675.3" r="13.73" class="cls-2"/>
      <path d="M190 778.32a5.84 5.84 0 0 1-10.71-4.65l8.35-19.25a5.84 5.84 0 0 1 10.71 4.65zM225.15 759.33a5.84 5.84 0 0 1-10.71-4.64l8.35-19.25a5.84 5.84 0 0 1 10.71 4.64z" class="cls-1"/>
      <path d="M97 815.51a4.06 4.06 0 0 1-5.51-1.57l-7.26-14.06a4 4 0 0 1 1.57-5.51l15.34-7.84-8-15.14a4.06 4.06 0 0 1 1.57-5.51l14-6.86a4 4 0 0 1 5.51 1.57l7.79 15 14.26-8a4.05 4.05 0 0 1 5.51 1.56l6.93 14.13a4.05 4.05 0 0 1-1.57 5.51l-13.92 7.87 7.64 14.23a4.05 4.05 0 0 1-1.56 5.51l-14.45 7.4a4.05 4.05 0 0 1-5.51-1.56l-7.55-15.08z" class="cls-2"/>
      <path d="M178.01 835.72l5.02-17.89M279.17 780.34l5.02-17.89" class="cls-5"/>
      <path d="M160.89 1104.22L50 1094.14l-34.14 107L84 1255.49l104.23 14.3 30.85-111.37zm-103.8.61l94.36 8.57-26.94 93.39-95.44-14.1zM35 1203.68l90.88 13.43 46 40.35L88.1 1246zm147.39 49.67l-48.64-42.64 26.86-93.07 47.21 44z" class="cls-1"/>
      <path d="M409.13 2230.51l-42.67-133.8-143.38 13.03-73.88 68.79 38.77 139.92 133.8-18.35 87.36-69.59z" class="cls-6"/>
      <path d="M223.08 2109.74l41.05 141.96-76.16 66.75M409.13 2230.5l-145 21.2" class="cls-6"/>
      <path d="M173.35 459.36a2.68 2.68 0 0 0-2.8.26 2.66 2.66 0 0 0-1 2.62l5.45 28.43-20.36 20.57A2.68 2.68 0 0 0 154 514a2.65 2.65 0 0 0 2.18 1.77l28.71 3.64 13.28 25.71a2.65 2.65 0 0 0 4 .91 2.7 2.7 0 0 0 .81-1l12.33-26.18 28.56-4.68a2.72 2.72 0 0 0 1.17-.5 2.66 2.66 0 0 0 .52-3.73 2.7 2.7 0 0 0-.56-.56l-20.84-19.58 4.37-28.61a2.67 2.67 0 0 0-3.92-2.74l-25.36 13.93zM325.9 1550.82a2.65 2.65 0 0 0-2.8.25 2.67 2.67 0 0 0-1 2.63l5.42 28.42-20.36 20.58a2.67 2.67 0 0 0 1.56 4.52l28.71 3.63 13.28 25.72a2.66 2.66 0 0 0 2.42 1.44 2.69 2.69 0 0 0 2.36-1.53l12.33-26.18 28.56-4.68a2.72 2.72 0 0 0 1.17-.5 2.67 2.67 0 0 0 .52-3.74 2.43 2.43 0 0 0-.56-.55l-20.84-19.59 4.37-28.6a2.67 2.67 0 0 0-3.92-2.74l-25.36 13.92zM59.14 940.19a2.68 2.68 0 0 0-2.8.26 2.66 2.66 0 0 0-1 2.62l5.41 28.43-20.36 20.57a2.69 2.69 0 0 0-.63 2.75 2.65 2.65 0 0 0 2.24 1.77l28.71 3.64 13.27 25.71a2.69 2.69 0 0 0 2.42 1.45 2.77 2.77 0 0 0 1.56-.54 2.58 2.58 0 0 0 .8-1l12.34-26.18 28.5-4.67a2.85 2.85 0 0 0 1.17-.5 2.66 2.66 0 0 0 .53-3.73 3 3 0 0 0-.57-.56l-20.84-19.58 4.39-28.63a2.66 2.66 0 0 0-3.91-2.74L85 953.19zM211.38 2935.55a5.3 5.3 0 0 0-5.56.5 5.27 5.27 0 0 0-2 5.21l10.74 56.39-40.37 40.81a5.28 5.28 0 0 0 3.09 9l56.95 7.22 26.33 51a5.3 5.3 0 0 0 7.89 1.8 5.42 5.42 0 0 0 1.6-2l24.46-51.92 56.64-9.3a5.18 5.18 0 0 0 2.33-1 5.28 5.28 0 0 0 1.05-7.4 5.55 5.55 0 0 0-1.12-1.1l-41.34-38.86 8.67-56.74a5.29 5.29 0 0 0-7.77-5.43l-50.32 27.63zM41 2770.61a2.68 2.68 0 0 0-2.8.26 2.66 2.66 0 0 0-1 2.62l5.42 28.43-20.36 20.57a2.67 2.67 0 0 0 1.56 4.52l28.71 3.64 13.28 25.71a2.67 2.67 0 0 0 4 .91 2.79 2.79 0 0 0 .81-1l12.33-26.18 28.56-4.68a2.85 2.85 0 0 0 1.17-.5 2.66 2.66 0 0 0 .52-3.73 2.7 2.7 0 0 0-.56-.56L91.75 2801l4.37-28.61a2.69 2.69 0 0 0-1.11-2.59 2.66 2.66 0 0 0-2.81-.15l-25.36 13.93zM341 2360.16a2.65 2.65 0 0 0-2.8.25 2.67 2.67 0 0 0-1 2.63l5.41 28.43-20.4 20.53a2.67 2.67 0 0 0 1.56 4.52l28.71 3.64 13.28 25.71a2.67 2.67 0 0 0 4 .91 2.74 2.74 0 0 0 .81-1l12.33-26.17 28.55-4.69a2.6 2.6 0 0 0 1.18-.5 2.67 2.67 0 0 0 .53-3.73 2.74 2.74 0 0 0-.57-.56l-20.84-19.59 4.38-28.6a2.67 2.67 0 0 0-3.92-2.74l-25.37 13.93zM320.88 3176.88a2.65 2.65 0 0 0-2.8.25 2.67 2.67 0 0 0-1 2.63l5.41 28.42-20.35 20.58a2.66 2.66 0 0 0 1.56 4.52l28.71 3.64 13.27 25.71a2.68 2.68 0 0 0 2.42 1.44 2.63 2.63 0 0 0 1.56-.54 2.51 2.51 0 0 0 .8-1l12.34-26.18 28.55-4.68a2.72 2.72 0 0 0 1.17-.5 2.65 2.65 0 0 0 0-4.29l-20.84-19.59 4.37-28.6a2.66 2.66 0 0 0-3.91-2.74l-25.37 13.93zM332.18 369.55a1.6 1.6 0 0 0-1.67.15 1.6 1.6 0 0 0-.61 1.57l3.23 17L321 400.49a1.59 1.59 0 0 0 .93 2.69l17.07 2.17 8 15.33a1.59 1.59 0 0 0 2.37.54 1.55 1.55 0 0 0 .48-.59l7.31-15.63 17-2.79a1.57 1.57 0 0 0 .7-.3 1.58 1.58 0 0 0 .31-2.22 1.52 1.52 0 0 0-.34-.33l-12.42-11.68 2.61-17.06a1.59 1.59 0 0 0-2.34-1.63l-15.13 8.3zM336.64.75A1.6 1.6 0 0 0 335 .9a1.61 1.61 0 0 0-.6 1.57l3.23 17-12.18 12.22a1.58 1.58 0 0 0-.37 1.63 1.6 1.6 0 0 0 1.3 1.06l17.12 2.17 7.92 15.33a1.57 1.57 0 0 0 1.44.86 1.59 1.59 0 0 0 1.41-.91l7.35-15.61 17-2.79a1.62 1.62 0 0 0 .7-.3 1.58 1.58 0 0 0 .31-2.22 1.82 1.82 0 0 0-.34-.34l-12.38-11.68 2.6-17.06a1.55 1.55 0 0 0-.66-1.54 1.57 1.57 0 0 0-1.67-.09l-15.13 8.3zM24.51 122.75a1.6 1.6 0 0 0-1.67.15 1.61 1.61 0 0 0-.6 1.57l3.23 16.95-12.14 12.27a1.58 1.58 0 0 0-.37 1.63 1.6 1.6 0 0 0 1.3 1.06l17.12 2.17 7.91 15.33a1.6 1.6 0 0 0 1.45.86 1.51 1.51 0 0 0 .92-.32 1.57 1.57 0 0 0 .49-.59l7.35-15.61 17-2.79a1.57 1.57 0 0 0 .7-.3 1.57 1.57 0 0 0 .32-2.22 1.82 1.82 0 0 0-.34-.34l-12.4-11.68 2.61-17.06a1.59 1.59 0 0 0-2.33-1.63l-15.13 8.3zM351.7 2777.9a1.6 1.6 0 0 0-1.67.15 1.59 1.59 0 0 0-.6 1.57l3.22 17-12.13 12.27a1.56 1.56 0 0 0-.37 1.63 1.59 1.59 0 0 0 1.3 1.06l17.12 2.17 7.91 15.33a1.6 1.6 0 0 0 1.45.86 1.58 1.58 0 0 0 .92-.32 1.46 1.46 0 0 0 .48-.59l7.36-15.61 17-2.79a1.57 1.57 0 0 0 .7-.3 1.59 1.59 0 0 0 .32-2.22 2.19 2.19 0 0 0-.34-.34L382 2796l2.61-17.06a1.59 1.59 0 0 0-2.34-1.63l-15.12 8.3zM242.26 1063.29a1.93 1.93 0 0 0-2 .19 1.93 1.93 0 0 0-.74 1.91l3.94 20.69-14.82 15a1.94 1.94 0 0 0 1.14 3.29l20.9 2.65 9.66 18.72a1.94 1.94 0 0 0 2.89.66 1.91 1.91 0 0 0 .59-.73l9-19.05 20.79-3.41a1.91 1.91 0 0 0 .85-.37 1.93 1.93 0 0 0 .39-2.71 1.81 1.81 0 0 0-.42-.41l-15.17-14.26 3.19-20.82a1.94 1.94 0 0 0-2.86-2l-18.46 10.14zM227.6 1294.81a1.91 1.91 0 0 0-2 .18 1.94 1.94 0 0 0-.73 1.91l3.94 20.7-14.82 15a1.94 1.94 0 0 0 1.14 3.29l20.89 2.65 9.67 18.72a1.94 1.94 0 0 0 2.89.66 2 2 0 0 0 .59-.72l9-19.06 20.78-3.41a2 2 0 0 0 .86-.36 1.94 1.94 0 0 0 .38-2.72 2 2 0 0 0-.41-.41L264.56 1317l3.18-20.83a1.92 1.92 0 0 0-.8-1.88 2 2 0 0 0-2.05-.11l-18.46 10.14zM56.75 1578.9a2 2 0 0 0-2 .18A2 2 0 0 0 54 1581l3.94 20.69-14.81 15a1.93 1.93 0 0 0-.46 2 2 2 0 0 0 1.59 1.3l20.9 2.64 9.67 18.72a1.91 1.91 0 0 0 1.76 1 2 2 0 0 0 1.13-.39 1.89 1.89 0 0 0 .59-.72l9-19.06 20.79-3.41a1.91 1.91 0 0 0 .85-.36 1.94 1.94 0 0 0 0-3.12L93.71 1601l3.18-20.82a1.94 1.94 0 0 0-2.85-2l-18.47 10.14zM348.2 1896.77a1.93 1.93 0 0 0-2 .19 1.93 1.93 0 0 0-.74 1.91l3.94 20.69-14.81 15a1.94 1.94 0 0 0 1.13 3.29l20.9 2.65 9.67 18.71a1.92 1.92 0 0 0 1.76 1 1.9 1.9 0 0 0 1.13-.38 2 2 0 0 0 .59-.73l9-19.05 20.79-3.41a1.92 1.92 0 0 0 .85-.37 2 2 0 0 0 .38-2.72 2.21 2.21 0 0 0-.41-.4l-15.17-14.26 3.18-20.82a1.94 1.94 0 0 0-2.85-2L367 1906.23zM23.18 2114a2 2 0 0 0-2 .18 2 2 0 0 0-.74 1.92l3.94 20.69-14.82 15a1.95 1.95 0 0 0 1.14 3.29l20.9 2.64 9.66 18.72a1.93 1.93 0 0 0 1.76 1 2 2 0 0 0 1.14-.39 1.87 1.87 0 0 0 .58-.72l9-19.06 20.79-3.41a2 2 0 0 0 .85-.36 1.93 1.93 0 0 0 0-3.12l-15.25-14.28 3.19-20.82a1.94 1.94 0 0 0-2.85-2L42 2123.42zM251.74 117.16a3.6 3.6 0 0 0-3.76.34 3.57 3.57 0 0 0-1.36 3.52l7.25 38.09-27.27 27.58a3.57 3.57 0 0 0 2.09 6.05l38.47 4.88L285 232.07a3.59 3.59 0 0 0 5.33 1.22 3.64 3.64 0 0 0 1.08-1.34l16.52-35.07 38.27-6.28a3.56 3.56 0 0 0 1.57-.67 3.55 3.55 0 0 0-.05-5.74l-27.93-26.25 5.86-38.33a3.57 3.57 0 0 0-5.25-3.67l-34 18.66z" class="cls-1"/>
      <path d="M165 1433.41a81.25 81.25 0 1 1-81.24-81.25 81.25 81.25 0 0 1 81.24 81.25" class="cls-7"/>
      <path d="M29.37 1440.34a6.93 6.93 0 0 1-6.93-6.93 61.38 61.38 0 0 1 61.31-61.31 6.93 6.93 0 0 1 0 13.86 47.51 47.51 0 0 0-47.45 47.45 6.93 6.93 0 0 1-6.93 6.93z" class="cls-1"/>
      <path d="M347.48 2579.09a163 163 0 1 1-163-163 163 163 0 0 1 163 163" class="cls-7"/>
      <path d="M75.37 2593a13.9 13.9 0 0 1-13.9-13.9 123.14 123.14 0 0 1 123-123 13.91 13.91 0 1 1 0 27.81 95.3 95.3 0 0 0-95.18 95.2A13.9 13.9 0 0 1 75.37 2593z" class="cls-1"/>
      <path d="M159.87 3108.51a69.21 69.21 0 1 1-69.21-69.2 69.21 69.21 0 0 1 69.21 69.2" class="cls-7"/>
      <path d="M44.34 3114.42a5.9 5.9 0 0 1-5.9-5.91 52.28 52.28 0 0 1 52.22-52.22 5.91 5.91 0 0 1 0 11.81 40.46 40.46 0 0 0-40.41 40.41 5.91 5.91 0 0 1-5.91 5.91z" class="cls-1"/>
      <path d="M249.07 3265.9a50.7 50.7 0 1 1-50.7-50.7 50.7 50.7 0 0 1 50.7 50.7" class="cls-7"/>
      <path d="M164.44 3270.23a4.33 4.33 0 0 1-4.33-4.33 38.31 38.31 0 0 1 38.26-38.26 4.33 4.33 0 0 1 0 8.65 29.65 29.65 0 0 0-29.61 29.61 4.32 4.32 0 0 1-4.32 4.33z" class="cls-1"/>
    </g>
  </g>
</svg>
