<svg xmlns="http://www.w3.org/2000/svg" viewBox="0 0 76 76">
  <defs>
    <style>
      .cls-1{fill:#fff}
    </style>
  </defs>
  <g id="Слой_2" data-name="Слой 2">
    <g id="Кнопки">
      <path d="M68.7 1A6.3 6.3 0 0 1 75 7.3v61.4a6.3 6.3 0 0 1-6.3 6.3H7.3A6.3 6.3 0 0 1 1 68.7V7.3A6.3 6.3 0 0 1 7.3 1h61.4m0-1H7.3A7.3 7.3 0 0 0 0 7.3v61.4A7.3 7.3 0 0 0 7.3 76h61.4a7.3 7.3 0 0 0 7.3-7.3V7.3A7.3 7.3 0 0 0 68.7 0z" class="cls-1"/>
      <path d="M65 64.8a6.2 6.2 0 0 1-4.4 1.8h-45a6.2 6.2 0 0 1-6.2-6.1V15.4a6.2 6.2 0 0 1 1.6-4.1L2.2 2.6A4.7 4.7 0 0 0 1 5.7v64.7A4.7 4.7 0 0 0 5.7 75h64.6a4.7 4.7 0 0 0 3.5-1.5z" class="cls-1"/>
      <rect width="60.4" height="60.5" x="7.9" y="7.7" class="cls-1" rx="9.9"/>
      <path fill="#1b9373" d="M58.5 9.2a8.4 8.4 0 0 1 8.3 8.3v40.8a8.4 8.4 0 0 1-8.3 8.3H17.8a8.4 8.4 0 0 1-8.4-8.3V17.5a8.4 8.4 0 0 1 8.4-8.3h40.7m0-3H17.8A11.4 11.4 0 0 0 6.4 17.5v40.8a11.4 11.4 0 0 0 11.4 11.3h40.7a11.4 11.4 0 0 0 11.3-11.3V17.5A11.4 11.4 0 0 0 58.5 6.2z"/>
    </g>
  </g>
</svg>
