<svg xmlns="http://www.w3.org/2000/svg" viewBox="0 0 661 890">
  <defs>
    <style>
      .cls-2{fill:#4d9ac9}.cls-3{fill:#f6ba26}.cls-7{fill:#f5a26b}.cls-8{fill:#d57254}.cls-9{fill:#f48864}.cls-11,.cls-12{fill:none;stroke:#851522;stroke-miterlimit:10}.cls-11{stroke-width:2px}.cls-12{stroke-width:1.5px}.cls-16{fill:#155287}.cls-17{fill:#cc3349}.cls-18{fill:#346d98}.cls-19{fill:#e33349}.cls-20{fill:#345c8e}
    </style>
  </defs>
  <g id="Слой_2" data-name="Слой 2">
    <g id="Слайд_1" data-name="Слайд 1">
      <g id="Главная">
        <path fill="#194472" d="M0 866c0 13 88 24 197 24s197-11 197-24-88-24-197-24S0 853 0 866"/>
        <path d="M499 588l-47-46 47-13 22 29-13 25-9 5zM403 636l-35-35c-1-1 28-9 28-9zM300 656l-49-49 42-15 7 64z" class="cls-2"/>
        <path d="M551 555c-8 11-60 44-52 30 2-3 11-20-3-36L365 383zM445 602s-33 53-48 27c-4-5-3-16-7-27S278 363 278 363h11zM331 644s-18 18-31 12c-5-2-14-15-21-39l-24-92 23-5z" class="cls-3"/>
        <path fill="#fad839" d="M618 470s-25-20-40 23c-8 21-23 69-35 65L365 383s126 133 131 166c0 0-13-12-33 20-8 12-16 30-19 33 0 0-76-98-155-227-2-5 0 8 0 8l101 219s-7-11-19 2c-4 4-38 41-40 40s-57-106-57-106l-13-1 18 80c0 1-8-16-23 0-9 10-20 28-27 33s-26-29-26-29l-47-324 40-96s43-8 55 0c14 10 114 70 117 81s85 111 134 125 116 63 116 63z"/>
        <path fill="#9e2b4b" d="M311 528s-27 0-34 8-28 14-35 13-75 6-82 9-88 4-97 0-6-22-6-22l249-21z"/>
        <path fill="#4f1f37" d="M325 181s-4-17-15-26c-10-8-91-110-91-110l-101-3-26 50 15 55 13 15s27 19 172 19c0 0-19-8-18-11 0 0 24-7 51 11z"/>
        <path d="M235 691s-6-44-15-63c-3-7 3-70 0-77s3-25-1-26-59 5-59 5 16 93 20 98 2 13 2 18 4 49 6 53 47-8 47-8zM156 711a149 149 0 0 0-17-58c-6-11-6-25-6-26s5-62 7-75c1-4-56-22-56-22s10 83 13 91 6 21 6 27v15zM282 267s-29 8-29 11-6-10-39-32c-2-1-3 5-3 5s-18-11-18-19 4-23 4-23 19-10 31-3c15 10 54 61 54 61zM95 290l-12 20c-3 5-24-3-24-3l-1-7s15-97 37-104c12-3 0 94 0 94zM173 187h-5l-1-11 1-19s27-6 40-28c0 0 10 8 20-13 2-4 1-10-3-11-2 0-9-1-10 2s3-26 1-38-23-38-23-38h-66l-20 40s-7 38-4 49 5 20 23 32c9 6 16 6 16 6s0 22-1 23c-3 3-8 2-9 2l-26 9 6 38 21 6 34-3 12-11z" class="cls-7"/>
        <path d="M168 156s-26 3-27 1v8s12 3 17 3l10-1z" class="cls-8"/>
        <path d="M237 680s-4-38-14-52c-2-4-3-20-2-25l1-56-61-11 4 22c1 2 39 0 41 1 2 0 4 0 4 4s4 57 5 61l7 31c1 8 15 25 15 25zM156 711s3-37-20-66c-4-7 0-54 0-54l4-36c0-4-51-19-51-19l-4 1 3 26c2 1 37 2 40 5s0 12 0 14-5 12-4 42c1 7 7 33 9 35s13 31 14 37 9 15 9 15zM282 266s-20-34-49-57c-3-3-24-6-24-6l2 5s24 6 63 58c4 5 8 0 8 0zM83 310s10-14 11-18l3-9-7-10s-8 34-11 37 4 0 4 0zM137 157s46 13 70-24c0 0 0-3 3-3s11 4 17-5c2-3 5-18 1-20s-10-4-12 0l1-12 3-55h-73l-27-7s-3 36 0 38 9 7 38 8c7 1 39 8 44 11s15 5 0 27c-4 5-13 34-38 37l-21 2c-6 0-6 3-6 3z" class="cls-9"/>
        <path d="M152 114c0 1-3 7-11 6-2 0-11-7 2-12 2-1 11 0 9 6z" class="cls-9"/>
        <path d="M215 124c2 0 7-7 7-10s-3-3-3-3l-2 3v6l-2 4s-1 1 0 0z" class="cls-8"/>
        <path fill="#fff" d="M162 131s-4 13-15 12c-13-1-13-12-13-13z"/>
        <path d="M162 131l-3-3h-13l-2-1-10 1a5 5 0 0 0 0 2z" class="cls-8"/>
        <path d="M190 104c4-8-16-20-20-5M132 94c0-8-13-12-16 0" class="cls-11"/>
        <path d="M196 90c0-13-21-15-26-6M139 79c3-8-18-13-21-1" class="cls-12"/>
        <path fill="#e53c48" d="M104 78c2 0 42-2 44 0s8 4 10 4h13c4 1 46 6 46 16l-1 7a17 17 0 0 1-8 10c-6 3-16 4-28 2-8-2-19-21-29-20-3 0-7-1-10 3s-8 10-27 6c-5-1-11-5-12-8s0-20 2-20zm60 20c13 13 19 13 23 13 3 0 17 0 17-7 0-14-29-17-34-17-9 0-9 9-6 11zm-37 4c5 0 12-6 14-10 4-8-13-12-17-12-11 0-14 2-15 7-3 17 15 15 18 15z"/>
        <path fill="#6d2e46" d="M338 201s44-30-18-72c-7-5 2-2 2-2s13-1 25 15c0 0 0-29-27-38-10-3-33 3-53-41-5-12-34-67-93-58-4 1-7-1-7-1s-64-34-83 90c-1 11 6 54 36 68 0 0-20-24-18-61 1-14 10-39 13-40s8 10 8 10 5-20 8-22c0 0 0 15 17 23l1-23s7 17 29 25c0 0-3-19 1-21s5 1 5 1-7 15 17 28c9 4 17 16 18 19s6 0 6 0-2-9 3-6l85 67s6-5 11 2 21 18 14 37z"/>
        <path fill="#864855" d="M275 80S178 15 99 47c0 0 4-18 22-36 3-2 58 35 113 10 0 0 19 14 41 59z"/>
        <path d="M244 878a14 14 0 0 0 0-10c-3-6-14-17-14-22v-17c0-5 7-110 14-138 1-3-15-23-15-23l-13 7 7 177 8 26zM149 868s5-3 5-5c0 0 2-10-3-15l-1-15c0-2 4-90 10-120 1-4-8-10-13-17s-21-13-21-13l17 160z" class="cls-16"/>
        <path d="M241 533s37-7 47-4 33 2 45-19c0 0-48-17-84-72-8-11-37-55-46-55-4 0-33-1-35 1s73 149 73 149" class="cls-17"/>
        <path d="M244 878s0-10-16-24c-5-4 0-19 2-24s-2-162-2-162-5-7-6-13-13-14-13-14-20 24-20 50c0 6 15 127 17 129s6 17 3 24-10 21-5 34c4 13 33 8 40 0zM103 873c1 0 16-6 21-5s25 2 25 0 2-9 0-12-6-123-2-160c0 0-15-29-47-44-2-1 14 87 25 155 2 13 5 30 3 32s-19 14-20 16-13 6-14 5-11 0-11 3c0 8 16 11 20 10z" class="cls-18"/>
        <path d="M227 548s19-23 23-24-26-39-26-50-10-38-11-43-27-46-30-46c-31-5-44-2-49 16 0 0-4-16-6-16l-30-2c-10 3-46 59-51 159-1 11 16 16 16 16s-4-13 7-13 31 7 37 9 38 2 42-2 9-11 30-6c12 2 37 13 48 2zM83 310s-2 10-6 14-1 14-1 14l-3 13c-2 4-31 64-31 68l2 19c1 3 2 29 1 30s-2 2-3-2l-2-11s0-6-4-6c0 0-2 0-4 3s-2 8-2 11v11c-1 1 3 9 4 12v7l-3 3-2-7-5-12-5-7c-1-1-1-18 2-21s9-24 9-26 13-86 17-90 8-10 8-13l1-23s6 11 27 13z" class="cls-19"/>
        <path d="M183 362l10-3s7-105 24-111c0 0-17-2-20-13-1-6-50 33-50 33l-4 34z" class="cls-20"/>
        <path d="M183 362s-48 14-81 4c-5-1 0-64-3-69-5-5-36-39-11-69 9-10 6-27 6-27s22 28 31 27c41-3 78-27 78-27l16 5s-29 7-22 29c2 4-4 40-44 58 0 0 11 2 30 69z" class="cls-18"/>
        <path fill="#f9d837" d="M183 385s-4-22-6-22-30 11-75 3l-4 17s27-1 36 18c0 0 6-18 49-16z"/>
        <path fill="#df8036" d="M183 385s15-4 20-2c0 0-10-19-10-24l-16 4 6 22z"/>
        <path d="M227 548s-35-60-38-69a65 65 0 0 1-2-19s-7 13 7 56c5 17 13 34 12 36 0 0 18 3 21-4zM151 550s-14-28-12-38-4-61-4-61l-6 41c-2 8-3 58 0 61s18 4 22-3zM249 339s42-23 44-30c0-2 5-7 5-7a6 6 0 0 0 0-5c-3-6-10-25-17-31-2-2-7 0-7 0l-2 3z" class="cls-17"/>
        <path d="M274 266s-26 8-23 12 9 9 9 9 1 1-1 3l-44 46c-1 2-7 1-8 0l-13-7-14-2-14 2c-2 1-1 3 1 3l10-1 4 2-1 2-11 2h-9c-1 0-2 2 0 3l8 1 13-1v5l-12 3-12 1c-2 0-1 3 1 3h11l10-1 1 3-6 3h-8c-3 0-5 3-1 3h36l17-9c4-2 22-4 63-31 4-3 13-18 6-35-2-5-13-19-13-19z" class="cls-19"/>
        <path d="M117 219c0-2-5-15 10-32 6-6 6-7 4-6s-25-2-43 14c-2 2 5 3 6 6s5 18 19 20c4 1 4-2 4-2zM658 465s16-52-21-64c-8-3-47 6-64 0-6-3-81-11-202-135-6-6-89-78-188-85-13-1-21 7-21 20 0 7 0 19 3 19s11 1 14-1 16-18 40-13c8 2 52 4 109 60 11 10 141 226 330 199z" class="cls-20"/>
      </g>
    </g>
  </g>
</svg>
