<svg xmlns="http://www.w3.org/2000/svg" viewBox="0 0 301.4 370.7">
  <defs>
    <style>
      .cls-1{fill:#ffd600}
    </style>
  </defs>
  <g id="Слой_2" data-name="Слой 2">
    <g id="Слайд_1" data-name="Слайд 1">
      <g id="Виртуальная_реальность" data-name="Виртуальная реальность">
        <path d="M88.9 105.5a2.3 2.3 0 0 0-2.1-1.3 2.3 2.3 0 0 0-2.1 1.3l-11.2 22.7-25 3.7a2.3 2.3 0 0 0-1.8 1.5 2.3 2.3 0 0 0 .6 2.4l18 17.6-4.2 25a2.3 2.3 0 0 0 1 2.2 2.3 2.3 0 0 0 1.3.4 2.3 2.3 0 0 0 1-.2L86.9 169l22.4 11.7a2.3 2.3 0 0 0 1 .3 2.3 2.3 0 0 0 2.4-2.3 2.6 2.6 0 0 0 0-.7l-4.3-24.6 18-17.7a2.3 2.3 0 0 0-1.3-4l-25-3.6zM247.9 98.2a2.3 2.3 0 0 0-2.1-1.3 2.3 2.3 0 0 0-2 1.3L232.5 121l-25 3.6a2.4 2.4 0 0 0-2 1.6 2.3 2.3 0 0 0 .7 2.4l18 17.6-4.2 24.9a2.3 2.3 0 0 0 3.4 2.5l22.4-11.8 22.3 11.7a2.3 2.3 0 0 0 1.1.3 2.3 2.3 0 0 0 2.3-2.4 2.2 2.2 0 0 0 0-.6l-4.3-24.6 18-17.7a2.3 2.3 0 0 0-1.2-4l-25-3.6zM282.5 190.6a1.1 1.1 0 0 0-1-.6 1.1 1.1 0 0 0-1 .6L275 202l-12.4 1.8a1.2 1.2 0 0 0-1 .8 1.1 1.1 0 0 0 .4 1.1l9 8.8-2.1 12.3a1.1 1.1 0 0 0 .4 1.1 1.1 1.1 0 0 0 .7.2 1.1 1.1 0 0 0 .5-.1l11.1-5.8 11 5.8a1.2 1.2 0 0 0 .6.1 1.1 1.1 0 0 0 1.2-1.1 1.2 1.2 0 0 0 0-.4l-2.1-12.2 9-8.7a1.2 1.2 0 0 0 .2-1.2 1.1 1.1 0 0 0-1-.8l-12.3-1.8zM21 253.5a1.2 1.2 0 0 0-1-.6 1.1 1.1 0 0 0-1 .6l-5.5 11.2L1 266.5a1.1 1.1 0 0 0-1 .8 1.1 1.1 0 0 0 .4 1.2l9 8.7-2.1 12.4a1.1 1.1 0 0 0 .4 1 1.1 1.1 0 0 0 1.2.2l11.1-5.9 11 5.8a1.3 1.3 0 0 0 .5.2 1.2 1.2 0 0 0 1.2-1.2 1.2 1.2 0 0 0 0-.3l-2.1-12.2 9-8.7a1.1 1.1 0 0 0-.7-2l-12.4-1.8zM162.5.6a1.1 1.1 0 0 0-1-.6 1.1 1.1 0 0 0-1 .6L155 12l-12.4 1.8a1.2 1.2 0 0 0-1 .8 1.1 1.1 0 0 0 .4 1.1l9 8.8-2.1 12.3a1.1 1.1 0 0 0 .4 1.1 1.1 1.1 0 0 0 .7.2 1.1 1.1 0 0 0 .5-.1l11.1-5.8 11 5.8a1.2 1.2 0 0 0 .6.1 1.1 1.1 0 0 0 1.2-1.1 1.2 1.2 0 0 0 0-.4l-2.2-12.2 9-8.7a1.2 1.2 0 0 0 .3-1.2 1.1 1.1 0 0 0-1-.8l-12.4-1.8zM233.7 304.3a66.3 66.3 0 1 1-66.4-66.3 66.3 66.3 0 0 1 66.3 66.3" class="cls-1"/>
        <path fill="#fff" d="M123 310a5.7 5.7 0 0 1-5.7-5.7 50.1 50.1 0 0 1 50-50 5.7 5.7 0 0 1 0 11.4 38.8 38.8 0 0 0-38.7 38.7 5.7 5.7 0 0 1-5.7 5.6z"/>
      </g>
    </g>
  </g>
</svg>
