<svg xmlns="http://www.w3.org/2000/svg" viewBox="0 0 454.7 409.3">
  <defs>
    <style>
      .cls-1{fill:#e65d9c}
    </style>
  </defs>
  <g id="Слой_2" data-name="Слой 2">
    <g id="Меню">
      <path d="M48.7 210.3a2.3 2.3 0 0 0-2.1-1.3 2.3 2.3 0 0 0-2 1.3l-11.2 22.6-25 3.7a2.3 2.3 0 0 0-1.3 4l18 17.6-4.2 24.9a2.3 2.3 0 0 0 3.4 2.4l22.3-11.7L69 285.5a2.4 2.4 0 0 0 1 .2 2.3 2.3 0 0 0 2.4-2.3 2.3 2.3 0 0 0-.1-.7l-4.2-24.6 18-17.6a2.3 2.3 0 0 0-1.3-4l-25-3.6zM422.9 193a2.3 2.3 0 0 0-2.1-1.3 2.3 2.3 0 0 0-2 1.3l-11.2 22.7-25 3.6a2.3 2.3 0 0 0-1.3 4l18 17.6-4.2 25a2.3 2.3 0 0 0 1 2.2 2.4 2.4 0 0 0 1.3.4 2.3 2.3 0 0 0 1.1-.2l22.3-11.8 22.4 11.7a2.3 2.3 0 0 0 1 .3 2.3 2.3 0 0 0 2.4-2.3 2.1 2.1 0 0 0 0-.7l-4.3-24.6 18-17.6a2.3 2.3 0 0 0-1.3-4l-25-3.7zM327.1 141.7a1.1 1.1 0 0 0-1-.6 1.1 1.1 0 0 0-1 .6l-5.5 11.2-12.4 1.9a1.2 1.2 0 0 0-.9.7 1.1 1.1 0 0 0 .3 1.2l9 8.7-2 12.4a1.1 1.1 0 0 0 .4 1 1.1 1.1 0 0 0 .6.3 1.1 1.1 0 0 0 .6-.1l11-5.8 11 5.8a1 1 0 0 0 .6.1 1.1 1.1 0 0 0 1.1-1.1 1.3 1.3 0 0 0 0-.4l-2.2-12.1 9-8.8a1.2 1.2 0 0 0 .3-1.2 1.1 1.1 0 0 0-1-.7l-12.3-1.8zM304 428a1.1 1.1 0 0 0-1-.6 1.1 1.1 0 0 0-1 .6l-5.5 11.2L284 441a1.2 1.2 0 0 0-1 .8 1.2 1.2 0 0 0 .4 1.2l9 8.7-2.1 12.3a1.1 1.1 0 0 0 .4 1.2 1.2 1.2 0 0 0 .7.2 1.3 1.3 0 0 0 .5-.1l11-5.8 11 5.8a1.2 1.2 0 0 0 .6.1 1.1 1.1 0 0 0 1.2-1.1 1.3 1.3 0 0 0 0-.4l-2.2-12.2 9-8.7a1.2 1.2 0 0 0-.7-2l-12.4-1.8zM87.4 444.6a1.2 1.2 0 0 0-1-.6 1.2 1.2 0 0 0-1 .6L79.9 456l-12.4 1.8a1.1 1.1 0 0 0-1 .8 1.1 1.1 0 0 0 .4 1.1l9 8.7-2.1 12.4a1.2 1.2 0 0 0 .4 1.1 1.1 1.1 0 0 0 .7.2 1 1 0 0 0 .5-.1l11.1-5.8 11 5.8a1.1 1.1 0 0 0 .5.1 1.2 1.2 0 0 0 1.1-1.1 1.3 1.3 0 0 0 0-.4L97 468.3l9-8.7a1.1 1.1 0 0 0 .2-1.2 1.1 1.1 0 0 0-.9-.8l-12.4-1.8zM127.3 73.4a1.2 1.2 0 0 0-1-.7 1.1 1.1 0 0 0-1 .7l-5.5 11.2-12.4 1.8a1.1 1.1 0 0 0-.6 2l9 8.7-2.1 12.4a1.1 1.1 0 0 0 1.1 1.3 1.1 1.1 0 0 0 .6-.1l11-5.8 11.1 5.8a1.1 1.1 0 0 0 .5 0 1.2 1.2 0 0 0 1.2-1 1.3 1.3 0 0 0 0-.4l-2.1-12.2 9-8.7a1.1 1.1 0 0 0 .2-1.2 1.2 1.2 0 0 0-.9-.8L133 84.6zM284.1 291a1.1 1.1 0 0 0-1-.6 1.1 1.1 0 0 0-1 .6l-5.5 11.2L264 304a1.1 1.1 0 0 0-.6 2l9 8.7-2.1 12.3a1.1 1.1 0 0 0 .4 1.1 1.1 1.1 0 0 0 .7.2 1.1 1.1 0 0 0 .5 0l11.1-6 11 5.9a1 1 0 0 0 .6.1 1.1 1.1 0 0 0 1.2-1.1 1.3 1.3 0 0 0 0-.4l-2.2-12.1 9-8.8a1.2 1.2 0 0 0 .3-1.2 1.1 1.1 0 0 0-1-.7l-12.4-1.8zM195 345.7a33.2 33.2 0 1 1-33.2-33.2 33.2 33.2 0 0 1 33.2 33.2" class="cls-1" transform="translate(-6.4 -72.7)"/>
      <path fill="#fff" d="M139.6 348.5a2.8 2.8 0 0 1-2.9-2.8 25.1 25.1 0 0 1 25-25 2.8 2.8 0 0 1 0 5.6 19.4 19.4 0 0 0-19.3 19.4 2.8 2.8 0 0 1-2.8 2.8z" transform="translate(-6.4 -72.7)"/>
    </g>
  </g>
</svg>
