<svg xmlns="http://www.w3.org/2000/svg" viewBox="0 0 188.49 409.28">
  <defs>
    <style>
      .cls-1{fill:#ffd600}
    </style>
  </defs>
  <g id="Слой_2" data-name="Слой 2">
    <g id="Слайд_1" data-name="Слайд 1">
      <g id="Главная">
        <path d="M42.3 137.53a2.31 2.31 0 0 0-2.08-1.3 2.34 2.34 0 0 0-2.09 1.3L27 160.19l-25 3.66a2.32 2.32 0 0 0-1.29 4l18.11 17.61-4.25 24.9a2.31 2.31 0 0 0 .93 2.27 2.27 2.27 0 0 0 1.37.45 2.3 2.3 0 0 0 1.08-.27L40.28 201l22.37 11.72a2.3 2.3 0 0 0 1.08.27 2.32 2.32 0 0 0 2.32-2.33A2.24 2.24 0 0 0 66 210l-4.24-24.6 18.06-17.64a2.33 2.33 0 0 0-1.29-4l-25-3.61zM81 371.89a1.17 1.17 0 0 0-1-.64 1.17 1.17 0 0 0-1 .64l-5.52 11.22-12.37 1.81a1.16 1.16 0 0 0-.64 2l9 8.72-2.1 12.33a1.16 1.16 0 0 0 .46 1.12 1.13 1.13 0 0 0 .68.22 1.09 1.09 0 0 0 .53-.13L80 403.32l11.07 5.81a1.26 1.26 0 0 0 .54.13 1.16 1.16 0 0 0 1.15-1.15 1.21 1.21 0 0 0-.05-.34l-2.1-12.18 8.94-8.74a1.15 1.15 0 0 0-.64-2l-12.35-1.75zM121 .64a1.17 1.17 0 0 0-1-.64 1.15 1.15 0 0 0-1 .64l-5.52 11.22L101 13.67a1.15 1.15 0 0 0-.93.79 1.13 1.13 0 0 0 .29 1.18l9 8.72-2.1 12.33a1.14 1.14 0 0 0 .46 1.12 1.15 1.15 0 0 0 1.21.09L120 32.07l11 5.81a1.25 1.25 0 0 0 .53.13 1.16 1.16 0 0 0 1.16-1.15 1.21 1.21 0 0 0-.05-.34l-2.11-12.18 8.95-8.74a1.15 1.15 0 0 0-.64-2l-12.38-1.79zM188.49 273a33.24 33.24 0 1 1-33.24-33.24A33.25 33.25 0 0 1 188.49 273" class="cls-1"/>
        <path fill="#fff" d="M133 275.85a2.84 2.84 0 0 1-2.84-2.83 25.12 25.12 0 0 1 25.09-25.09 2.84 2.84 0 0 1 0 5.67 19.43 19.43 0 0 0-19.41 19.4 2.84 2.84 0 0 1-2.84 2.85z"/>
      </g>
    </g>
  </g>
</svg>
