<svg xmlns="http://www.w3.org/2000/svg" viewBox="0 0 254.86 370.73">
  <defs>
    <style>
      .cls-1{fill:#ffd600}
    </style>
  </defs>
  <g id="Слой_2" data-name="Слой 2">
    <g id="Слайд_1" data-name="Слайд 1">
      <g id="Главная">
        <path d="M42.3 105.53a2.31 2.31 0 0 0-2.08-1.3 2.34 2.34 0 0 0-2.09 1.3L27 128.19l-25 3.66a2.32 2.32 0 0 0-1.29 4l18.11 17.61-4.25 24.9a2.31 2.31 0 0 0 .93 2.27 2.27 2.27 0 0 0 1.37.45 2.3 2.3 0 0 0 1.08-.27L40.28 169l22.37 11.72a2.3 2.3 0 0 0 1.08.27 2.32 2.32 0 0 0 2.32-2.33A2.24 2.24 0 0 0 66 178l-4.24-24.6 18.06-17.64a2.33 2.33 0 0 0-1.29-4l-25-3.61zM201.33 98.21a2.32 2.32 0 0 0-2.09-1.3 2.33 2.33 0 0 0-2.08 1.3L186 120.87l-25 3.65a2.33 2.33 0 0 0-1.87 1.59 2.31 2.31 0 0 0 .59 2.38l18.1 17.61-4.23 24.9a2.33 2.33 0 0 0 2.29 2.72 2.37 2.37 0 0 0 1.09-.27l22.34-11.77 22.36 11.72a2.3 2.3 0 0 0 1.08.27 2.33 2.33 0 0 0 2.33-2.33 2.54 2.54 0 0 0-.1-.68l-4.25-24.6 18.07-17.64a2.33 2.33 0 0 0-1.29-4l-25-3.61zM236 190.64a1.17 1.17 0 0 0-1-.64 1.15 1.15 0 0 0-1 .64l-5.52 11.22-12.48 1.81a1.15 1.15 0 0 0-.93.79 1.13 1.13 0 0 0 .29 1.18l9 8.72-2.1 12.33a1.14 1.14 0 0 0 .46 1.12 1.15 1.15 0 0 0 1.21.09l11.07-5.83 11 5.81a1.25 1.25 0 0 0 .53.13 1.16 1.16 0 0 0 1.16-1.15 1.21 1.21 0 0 0-.05-.34l-2.11-12.18 8.95-8.74a1.15 1.15 0 0 0-.64-2l-12.38-1.79zM116 .64a1.17 1.17 0 0 0-1-.64 1.15 1.15 0 0 0-1 .64l-5.52 11.22L96 13.67a1.15 1.15 0 0 0-.93.79 1.13 1.13 0 0 0 .29 1.18l9 8.72-2.1 12.33a1.14 1.14 0 0 0 .46 1.12 1.15 1.15 0 0 0 1.21.09L115 32.07l11 5.81a1.25 1.25 0 0 0 .53.13 1.16 1.16 0 0 0 1.16-1.15 1.21 1.21 0 0 0 0-.34l-2.11-12.18 8.95-8.74a1.15 1.15 0 0 0-.64-2l-12.38-1.79zM186.92 304.4a66.33 66.33 0 1 1-66.33-66.33 66.33 66.33 0 0 1 66.33 66.33" class="cls-1"/>
        <path fill="#fff" d="M76.2 310.06a5.67 5.67 0 0 1-5.66-5.66 50.11 50.11 0 0 1 50.05-50 5.66 5.66 0 1 1 0 11.31 38.78 38.78 0 0 0-38.73 38.69 5.66 5.66 0 0 1-5.66 5.66z"/>
      </g>
    </g>
  </g>
</svg>
