<svg xmlns="http://www.w3.org/2000/svg" viewBox="0 0 454.7 409.3">
  <defs>
    <style>
      .cls-1{fill:#ffd600}
    </style>
  </defs>
  <g id="Слой_2" data-name="Слой 2">
    <g id="Слайд_1" data-name="Слайд 1">
      <g id="Виртуальная_реальность" data-name="Виртуальная реальность">
        <path d="M42.3 137.5a2.3 2.3 0 0 0-2-1.3 2.3 2.3 0 0 0-2.2 1.3L27 160.2l-25 3.7a2.3 2.3 0 0 0-1.3 4l18.1 17.6-4.2 24.9a2.3 2.3 0 0 0 .9 2.2 2.3 2.3 0 0 0 1.4.5 2.3 2.3 0 0 0 1-.3L40.4 201l22.4 11.7a2.3 2.3 0 0 0 1 .3 2.3 2.3 0 0 0 2.4-2.3 2.2 2.2 0 0 0-.1-.7l-4.2-24.6 18-17.6a2.3 2.3 0 0 0-1.3-4l-25-3.7zM416.5 120.3a2.3 2.3 0 0 0-2-1.3 2.3 2.3 0 0 0-2.2 1.2L401.2 143l-25 3.7a2.3 2.3 0 0 0-1.3 4l18.1 17.6-4.2 24.8a2.3 2.3 0 0 0 .9 2.3 2.4 2.4 0 0 0 1.4.4 2.3 2.3 0 0 0 1-.2l22.4-11.8 22.3 11.7a2.3 2.3 0 0 0 1.1.3 2.3 2.3 0 0 0 2.3-2.4 2.3 2.3 0 0 0 0-.6l-4.3-24.6 18.1-17.6a2.3 2.3 0 0 0-1.3-4l-25-3.6zM320.8 69a1.1 1.1 0 0 0-1-.6 1.1 1.1 0 0 0-1 .6l-5.6 11.2-12.4 1.8a1.2 1.2 0 0 0-1 .8 1.2 1.2 0 0 0 .4 1.2l9 8.7L307 105a1.1 1.1 0 0 0 .5 1.1 1.1 1.1 0 0 0 .6.3 1.1 1.1 0 0 0 .6-.2l11-5.8 11.1 5.8a1.1 1.1 0 0 0 .5.1 1.1 1.1 0 0 0 1.2-1.1 1.2 1.2 0 0 0 0-.4l-2.1-12.1 9-8.8a1.2 1.2 0 0 0 .2-1.2 1.1 1.1 0 0 0-.9-.7l-12.4-1.8zM81 371.9a1.2 1.2 0 0 0-1-.6 1.2 1.2 0 0 0-1 .6L73.5 383 61 385a1.2 1.2 0 0 0-.6 2l9 8.7-2.1 12.4a1.2 1.2 0 0 0 .4 1 1.1 1.1 0 0 0 .7.3 1 1 0 0 0 .5-.1l11-5.9 11 5.8a1.3 1.3 0 0 0 .6.2 1.2 1.2 0 0 0 1.2-1.2 1.2 1.2 0 0 0 0-.3l-2.2-12.2 9-8.7a1.1 1.1 0 0 0-.7-2L86.6 383zM121 .6a1.2 1.2 0 0 0-1-.6 1.1 1.1 0 0 0-1 .6L113.5 12 101 13.7a1.1 1.1 0 0 0-1 .8 1.1 1.1 0 0 0 .4 1.1l9 8.8-2.1 12.3a1.1 1.1 0 0 0 .4 1.1 1.1 1.1 0 0 0 1.2.1l11.1-5.8 11 5.8a1.3 1.3 0 0 0 .5.1 1.2 1.2 0 0 0 1.2-1.1 1.2 1.2 0 0 0 0-.4l-2.2-12.2 9-8.7a1.1 1.1 0 0 0-.7-2l-12.3-1.8zM277.7 218.2a1.1 1.1 0 0 0-1-.6 1.1 1.1 0 0 0-1 .6l-5.5 11.2-12.4 1.8a1.2 1.2 0 0 0-.9.8 1.2 1.2 0 0 0 .3 1.2l9 8.7-2.2 12.3a1.1 1.1 0 0 0 .5 1.2 1.1 1.1 0 0 0 .6.2 1.1 1.1 0 0 0 .6-.1l11-5.9 11.1 5.8a1.2 1.2 0 0 0 .5.2 1.1 1.1 0 0 0 1.2-1.2 1.2 1.2 0 0 0 0-.3l-2.2-12.2 9-8.7a1.2 1.2 0 0 0 .3-1.2 1.1 1.1 0 0 0-1-.8l-12.3-1.8zM188.7 273a33.2 33.2 0 1 1-33.3-33.2 33.3 33.3 0 0 1 33.3 33.2" class="cls-1"/>
        <path fill="#fff" d="M133.2 275.8a2.8 2.8 0 0 1-2.9-2.8 25.1 25.1 0 0 1 25.1-25.1 2.8 2.8 0 1 1 0 5.6A19.4 19.4 0 0 0 136 273a2.8 2.8 0 0 1-2.8 2.8z"/>
      </g>
    </g>
  </g>
</svg>
