<svg xmlns="http://www.w3.org/2000/svg" viewBox="0 0 215.22 1159.46">
  <defs>
    <style>
      .cls-2,.cls-3{fill:none;stroke:#fff;stroke-miterlimit:10}.cls-2{stroke-width:4px}.cls-3{stroke-width:10px}
    </style>
  </defs>
  <g id="Слой_2" data-name="Слой 2">
    <g id="Элементы">
      <path fill="none" stroke="#fff" stroke-miterlimit="10" stroke-width="7" d="M137.89 422.13a4.52 4.52 0 0 0-4-2.5 4.48 4.48 0 0 0-4 2.51L108.26 466l-48.32 7a4.51 4.51 0 0 0-2.48 7.68l35 34-8.2 48.13a4.5 4.5 0 0 0 4.43 5.26 4.59 4.59 0 0 0 2.1-.52L134 544.84l43.24 22.67a4.57 4.57 0 0 0 2.09.51 4.49 4.49 0 0 0 4.3-5.82l-8.21-47.55 34.93-34.11a4.49 4.49 0 0 0-2.5-7.67l-48.32-7z"/>
      <path d="M124.24 1079.34a2.41 2.41 0 0 0-2.16-1.34 2.41 2.41 0 0 0-2.16 1.34l-11.54 23.45-25.85 3.78a2.41 2.41 0 0 0-1.33 4.11l18.73 18.21-4.39 25.76a2.4 2.4 0 0 0 3.49 2.53l23.11-12.18 23.14 12.14a2.5 2.5 0 0 0 1.12.27 2.4 2.4 0 0 0 2.41-2.4 2.35 2.35 0 0 0-.11-.71l-4.39-25.45L163 1110.6a2.41 2.41 0 0 0-1.33-4.11l-25.86-3.73z" class="cls-2"/>
      <path d="M2.72 1027.39q4.42.33 8.93.33a121.94 121.94 0 0 0 0-243.87c-3 0-6 .12-8.93.33M2.72 296a93.37 93.37 0 1 0 0-156.84" class="cls-3"/>
      <path d="M149.24 3.34A2.41 2.41 0 0 0 147.08 2a2.41 2.41 0 0 0-2.16 1.34l-11.54 23.45-25.85 3.78a2.41 2.41 0 0 0-1.33 4.11l18.73 18.21-4.39 25.76a2.4 2.4 0 0 0 3.46 2.53L147.14 69l23.14 12.14a2.5 2.5 0 0 0 1.12.27 2.4 2.4 0 0 0 2.41-2.4 2.35 2.35 0 0 0-.11-.71l-4.39-25.45L188 34.6a2.41 2.41 0 0 0-1.33-4.11l-25.86-3.73z" class="cls-2"/>
    </g>
  </g>
</svg>
