<svg xmlns="http://www.w3.org/2000/svg" viewBox="0 0 360.3 735.4">
  <defs>
    <style>
      .cls-1{fill:#101314}.cls-2{fill:#f1623e}.cls-3{fill:#b5381a}.cls-4{fill:#a65358}.cls-5{fill:#bed536}.cls-6{fill:#8dcb1f}.cls-7{fill:#e74839}.cls-8{fill:#bc311b}.cls-9{fill:#fff}.cls-10{fill:#ffbaa1}.cls-11{fill:#ff987c}.cls-13{fill:#f99090}.cls-14{fill:#ebac82}.cls-15{fill:#cfdbf3}.cls-18{fill:#ffbaa2}.cls-20{fill:#f4ca1f}.cls-21{fill:#e99824}.cls-22{fill:#d5bea9}.cls-23{fill:#b08b70}.cls-24{fill:#d5bca7}.cls-26{fill:#0e1011}.cls-27{fill:#6d7481}.cls-28{fill:#262d38}.cls-29{fill:#3b3e45}.cls-30{fill:#181b1a}.cls-31{fill:#282c33}
    </style>
  </defs>
  <g id="Слой_2" data-name="Слой 2">
    <g id="Слайд_2" data-name="Слайд 2">
      <g id="Образец_акции" data-name="Образец акции">
        <path d="M334.3 721c0 8-74.9 14.4-167.2 14.4S0 729 0 721s74.8-14.4 167.1-14.4S334.3 713 334.3 721" class="cls-1"/>
        <path d="M45.9 234.8s33 11 49.2-2.6c1-.8-7.1 13-14.6 17.8-.7.5 20.7 6.4 24 5.2l127-49s9.7-24.3 9.7-26.8 10.8-26.5 12.5-29 40-126.2-48.3-149.1c-28-7.3-84 16.3-84.4 65.6-.1 14.5 3 30.7-27.8 49.7-2.5 1.6-17 12.7-8.4 50.7 1.6 6.7 4.4 52-39 67.5" class="cls-2"/>
        <path d="M45.9 234.8s57.1-13.6 56.3-45.8c-.1-6.5-1.8-31.9 13.1-41 1.2-.8 13.5-2.5 14.8-19.7.3-3.7.8-20.1.8-20.1l117.1 9.6s-12.8 79.8-15.7 85.5S113.8 252 113.8 252l-7.6 4.4-22.8-4.6-2.9-1.8s14.3-14.3 14.6-17.8c0 0-11.6 15.3-49.2 2.6" class="cls-3"/>
        <path d="M106.8 270.7c-.3.1-7.4-1.6-4.5-11.9l8.7-37s.1-4.5 5.5-2.5 15 6.8 15 6.8z" class="cls-4"/>
        <path d="M116.5 215.6s12.6-9.8 21-9.8c1 0 13.7-14.6 41-13.2l5.7-.4c11.7-.7 36.6-1.4 45.5 11.9 1.7 2.6-88.9 18.3-88.9 18.3z" class="cls-5"/>
        <path d="M126 342s-6.5 24.5 9.7 30.4c5.8 2.1 1.6-35.3 1.6-35.3z" class="cls-4"/>
        <path d="M93.2 315.7c0-.3-3.2-4.2-2.8-6s1.3-11.5 1.4-15 1-13 9.6-14.3l.4 7-6.6 25.7z" class="cls-6"/>
        <path d="M93.4 309.6s18-88.3 57.5-104.8c0 0 4.5-1.6 20.2-9 1.5-.7 38.1-10 53 7.3 2 2.3 4.2 1.7 4.2 1.7s2.6-1.5 3.6-1.5 2.4-1 3-1.4 34.3-20.7 52-41.7c.1-.2 12.2 8.6 24.9 23.5 0 0-16 27.9-73 77.6 0 0-.5.3-.2 2s4.8 101.1 4.8 102.8.8 12.6-2 13.7a3.4 3.4 0 0 1-2 .2 3 3 0 0 0-2.2.2c-1.8.9-32.5 2.8-40 2.7s-38.2-1-40-.8c-2.3.2-23.1 1-22.6-5.6l.5-31.8s4.5-35.4 1.1-43.7c-1.6-3.9-23.5-4-24.2-3.6a3.8 3.8 0 0 1-1.2 0c-3.1 0-12.1 0-17.3 12.2" class="cls-7"/>
        <path d="M160.9 382s-21.3-16.3-7-44c3-5.6 20.7-21.4 27.3-93.6.7-7.3-7.9-48.3-7.9-48.3s-25.9 5.3-32.5 14.6c0 0 10.7.4 13.5 14.4.7 3-7.2 22.3-8.5 24.3s-4.4 8-6.8 9.6-19.9 22-20.6 25-4.1 8-7.2 9.6-16 9.5-16.4 11.7a23.3 23.3 0 0 1-1.4 4.3s41-9.7 41.9-8.5.9.2 1 5-2.4 56-1.6 61.3c.3 1.4-3.1 12 3.7 13.9 2.5.7 21.3 1.3 22.5.8" class="cls-8"/>
        <path d="M215.6 209zm0 0zm0 0zm0 0zm0 0zm0 0zm0 0zm0 0zm0 0zm0 0zm0 0zm0 0zm0 0zm0 0zm0 0zm0 0zm0 0zm0 0zm0 0zm0 0zm0 0zm0 0zm0 0zm0 0zm0 0zm0 0zm0 0zm0 0zm0 0zm0 0zm0 0zm0 0zm0 0zm0 0zm0 0zm0 0zm0 0zm0 0zm0 0zm0 0zm0 0zm0 0zm0 0zm0 0zm0 0zm0 0zm0 0zm0 0zm0 0zm0 0zm0 0zm0 0zm0 0zm0 0zm0 0zm0 0zm0 0zm0 0zm0 0zm0 0zm0 0zm0 0zm0 0zm0 0z" class="cls-9"/>
        <path d="M191.4 230.2a18.8 18.8 0 0 1-12.5-4.8 21.6 21.6 0 0 1-7.1-16.2 22 22 0 0 1 .4-4.4 17.5 17.5 0 0 1 2.4-2.6 32 32 0 0 1 22.3-8h4.2a10.1 10.1 0 0 0 3.7-.5 21.7 21.7 0 0 1 6.3 15.5c0 11.6-8.8 21-19.7 21" class="cls-10"/>
        <path d="M170.6 196l.3-.5a8.4 8.4 0 0 1 4-1.3 5.3 5.3 0 0 1 1.4.2v.9a17 17 0 0 0-2.4 3.9 19.9 19.9 0 0 0-1.7 5.6 22 22 0 0 0-.5 4.4 21.6 21.6 0 0 0 7.2 16.2l1 6.6a26.2 26.2 0 0 1-12.7-22.8 27.1 27.1 0 0 1 3-12.4c0-.3.2-.5.4-.8" class="cls-9"/>
        <path d="M173 192.5a25.7 25.7 0 0 1 3.4-3.6v3.6H173m37.6.8l-5.6-.8v-4.8a25.2 25.2 0 0 1 5.5 5.6z" class="cls-3"/>
        <path d="M211.7 195a13.7 13.7 0 0 0-5.5-1.5 4.9 4.9 0 0 0-.8 0h-.5v-1c2 .1 3.8.4 5.7.8l1 1.7m-40.6.5a25.6 25.6 0 0 1 2-3h3.4v1.9a5.3 5.3 0 0 0-1.4-.2 8.4 8.4 0 0 0-4 1.3z" class="cls-5"/>
        <path d="M205 193.6h.4-.5" class="cls-7"/>
        <path d="M119.4 299.1a10 10 0 0 1 7.3 2.8c5.4 5.3 3.2 15.7-3.8 24-4.4 5.1-9.3 7.9-13.8 7.9a9.7 9.7 0 0 1-7-2.9c-5.3-5.3-4.9-15.5 2.1-23.7a21 21 0 0 1 15.2-8.1m0-4.8c-6.4 0-13.4 3.6-18.5 9.6a28.1 28.1 0 0 0-6.9 15.9c-.4 5.8 1.4 11 5 14.7a14.1 14.1 0 0 0 10 4.1c6 0 12-3.4 17.2-9.5a33 33 0 0 0 7.7-15.5c1-6.2-.5-11.6-4.2-15.3a14.4 14.4 0 0 0-10.3-4z" class="cls-9"/>
        <path d="M176.4 194.5v-10a56.5 56.5 0 0 1-37.6-52.3 55.1 55.1 0 0 0 53 51.6l3.3-.1c27.9-2 49.9-26.7 49.9-57v-1.2l.2 4.3v.1c0 26.1-17.9 48.4-40.2 55.1v8.5a.1.1 0 0 1 0 .1.5.5 0 0 1-.1.1 10.1 10.1 0 0 1-3.7.5H197a32 32 0 0 0-22.4 8 17.5 17.5 0 0 0-2.3 2.6 19.9 19.9 0 0 1 1.7-5.7 17 17 0 0 1 2.5-3.8v-.8" class="cls-11"/>
        <path d="M206.5 149.2H177v.1a16.2 16.2 0 0 0 5 11.8 14 14 0 0 0 9.6 4h.3a14 14 0 0 0 9.2-3.7 16.1 16.1 0 0 0 5.3-12v-.3zm40.7-26.2a17.7 17.7 0 0 1-2.3.8v2.9c0 30.3-22 55-49.8 57H191.7l-3.8-.1a55.1 55.1 0 0 1-49.3-56.9v-.8a18 18 0 0 1-8.1-5.4 20 20 0 0 1-4.9-13.2 20.4 20.4 0 0 1 2-9 72.3 72.3 0 0 0 16.6 2h2.4a74.7 74.7 0 0 0 54.1-26.5A83.1 83.1 0 0 0 214 52.5c.8 5.1 3.2 17.3 8.6 27.4l-.2.3.6.4c4.7 8.5 11.7 15.5 22 15.5a23 23 0 0 0 2.7-.1h.2c3.6 0 12 10.9 7.2 20.5a18.4 18.4 0 0 1-8 6.5zM191.6 183.3" class="cls-10"/>
        <path d="M144.2 100.2a72.3 72.3 0 0 1-16.5-1.9 18 18 0 0 1 16-10.4 17 17 0 0 1 7.6 1.8 51.7 51.7 0 0 1 40.5-20h.3a20.6 20.6 0 0 1-.3-3.5c0-10.7 8-19.4 18-19.4h.2a18.3 18.3 0 0 1 2.5.2l1.2 3 .4 2.5a83.1 83.1 0 0 1-13.3 21.3 50.5 50.5 0 0 0-8.6-.8h-.4c-19.1.1-35.8 11-45.1 27.3h-2.5z" class="cls-2"/>
        <path d="M192.2 73" class="cls-11"/>
        <path d="M146.6 100.2A52.5 52.5 0 0 1 191.8 73h.4a50.5 50.5 0 0 1 8.5.7 74.7 74.7 0 0 1-54 26.5M222.7 79.9a91.8 91.8 0 0 1-8.6-27.5l-.4-2.5-1.3-3A19 19 0 0 1 228 66.2a20 20 0 0 1-5.3 13.7m32.5 36.5c4.8-9.6-3.7-20.5-7.3-20.5h-.2a23 23 0 0 1-2.7.2c-10.2 0-17.3-7-22-15.6a54.8 54.8 0 0 1 8.2 7.9 17 17 0 0 1 9.4-2.9c10 0 18.1 8.7 18.1 19.4a20.1 20.1 0 0 1-3.5 11.5z" class="cls-2"/>
        <path d="M201.1 161.4v-.2a10.8 10.8 0 0 0-19-.1 16.2 16.2 0 0 1-5-11.8v-.1h29.3v.3a16.1 16.1 0 0 1-5.3 12" class="cls-3"/>
        <path d="M180.4 167.6zm11.1 11.8z" class="cls-10"/>
        <path d="M192 165h-.3a14 14 0 0 1-9.5-4 14 14 0 0 0 18.9.2v.2a14 14 0 0 1-9.1 3.6" class="cls-3"/>
        <path fill="#bc4628" d="M191.7 164.9a14 14 0 0 1-9.6-3.8 10.8 10.8 0 0 1 19 .1 14 14 0 0 1-9.4 3.7"/>
        <path d="M165.5 132.2a7.5 7.5 0 1 1-7.5-8 7.8 7.8 0 0 1 7.5 8M234 130.5a7.5 7.5 0 1 1-7.4-8 7.8 7.8 0 0 1 7.5 8" class="cls-13"/>
        <path d="M191.8 131.7c3 0 8.3-.6 4.5 3.2-1.4 1.4-6.9 2.6-9.5 0-.8-.8-2.4-3 5-3.2" class="cls-11"/>
        <path d="M161.5 117.3a1.7 1.7 0 1 1-1.8-1.8 1.8 1.8 0 0 1 1.8 1.8M168 123.5a1.7 1.7 0 1 1-1.8-1.9 1.8 1.8 0 0 1 1.7 1.9M182.3 122.4a1.7 1.7 0 1 1-1.7-1.8 1.8 1.8 0 0 1 1.7 1.8M189.5 116a1.7 1.7 0 1 1-1.7-2 1.8 1.8 0 0 1 1.7 2M196 125.3a1.7 1.7 0 1 1-1.7-1.8 1.8 1.8 0 0 1 1.7 1.8M205.4 120.6a1.7 1.7 0 1 1-1.7-1.9 1.8 1.8 0 0 1 1.7 1.9M217.1 124.3a1.7 1.7 0 1 1-1.7-1.9 1.8 1.8 0 0 1 1.7 1.9M225 119.5a1.7 1.7 0 1 1-1.8-1.8 1.8 1.8 0 0 1 1.7 1.8" class="cls-14"/>
        <path d="M110.6 339.3c-.1.5-4.2 20.4 19.9 30 3.8 1.5 0-39.9 0-39.9l-6.9 1.1z" class="cls-5"/>
        <path d="M322.7 665.4c0 35.8-15.8 64.8-35.3 64.8s-35.3-29-35.3-64.8 15.8-64.8 35.3-64.8 35.3 29 35.3 64.8M173.2 110.9a4.7 4.7 0 1 1-4.7-5 4.9 4.9 0 0 1 4.6 5M219 110.9a4.7 4.7 0 1 1-4.6-5 4.9 4.9 0 0 1 4.7 5" class="cls-1"/>
        <path d="M294 665l-7.1-3.2a19.5 19.5 0 0 0-13.4-15.4c-6.6-2.1-16.3-7.6-16.3-7.6s-1.4-34.1 16.3-43.2c1-.5 31.3-14.2 37.2 19.4 0 0 4.2 17.9-16.7 50" class="cls-15"/>
        <path fill="#6c7680" d="M286.8 662.1s9.5-19.6-.7-20.1c-13.3-.8-30.8-26.4-13.5-45 0 0-8.1 5.4-11.3 22.7-.7 3.7-.9 16.3-.9 16.3l16.7 25.5z"/>
        <path d="M299 656.9s-3.7-58.3-32-50.8c-1.7.4 5.7-9.2 5.7-9.2s2.6-2 9.4-4.3c1.2-.3 13.5 1.3 18 16.4a106 106 0 0 1 5 35c-.3 2-6 13-6 13" class="cls-9"/>
        <path d="M162 95.8a6.3 6.3 0 0 1 .7-3 9.6 9.6 0 0 1 3.8-3.8 11.5 11.5 0 0 1 5.6-1.5 10 10 0 0 1 4.8 1.2 11.3 11.3 0 0 1 4.2 4 1.4 1.4 0 0 0 2 .4 1.7 1.7 0 0 0 .5-2.2 14.7 14.7 0 0 0-5.3-5.1 13 13 0 0 0-6.2-1.6 14.3 14.3 0 0 0-9 3.3 12 12 0 0 0-3 3.6 9.8 9.8 0 0 0-1.2 4.6 1.5 1.5 0 1 0 3 0M208.8 92.3a4.5 4.5 0 0 1 2.5-2 13.6 13.6 0 0 1 4.9-.8A15.8 15.8 0 0 1 223 91a8 8 0 0 1 4.2 4.3 1.5 1.5 0 0 0 2 1 1.7 1.7 0 0 0 .8-2.2 11.3 11.3 0 0 0-5.7-6 18.4 18.4 0 0 0-8-1.8 16.4 16.4 0 0 0-6 1 7.5 7.5 0 0 0-4.2 3.4 1.7 1.7 0 0 0 .7 2.2 1.4 1.4 0 0 0 2-.7" class="cls-3"/>
        <path d="M236.6 239.4l2 22 7.2-6.2 12.2-11.3s-18.1.8-21.3-4.5" class="cls-8"/>
        <path d="M124.4 332s48-52.1 25.6-124.9c-.8-2.5-.9-4.7 2-6.2 1-.6 7.6-1.4 9-1.4s5 0 5.7 2.6c.7 2.3 4.5 17 5.4 19s19.4 73.8-45.4 132.5c-.8.7-1.2.3-1.4-1.2s-1.7-17.5-1.6-18.6a2.4 2.4 0 0 1 .7-1.8" class="cls-6"/>
        <path d="M148.4 247.2c.6-4.1-1.1-11 6.9-24.6.8-1.4 4.2 6.7 3.7 7.8s-10.6 16.8-10.6 16.8" class="cls-11"/>
        <path d="M132.6 298.6l1.7-1.6a14.7 14.7 0 0 0-5.6-4.1 17.3 17.3 0 0 0-6.7-1.3c-6.6 0-13.7 3-19.7 8.9a32.2 32.2 0 0 0-10.4 22.3 17.4 17.4 0 0 0 3.8 11.3 14.7 14.7 0 0 0 5.5 4.1 17.4 17.4 0 0 0 6.8 1.3c6.5 0 13.6-3 19.6-8.9a32.2 32.2 0 0 0 10.5-22.3 17.4 17.4 0 0 0-3.8-11.3l-1.7 1.6-1.7 1.6a12.3 12.3 0 0 1 2.6 8.2c0 5.8-3 13-8.9 18.7a25 25 0 0 1-16.6 7.6 13 13 0 0 1-5-1 10 10 0 0 1-4-2.8 12.3 12.3 0 0 1-2.6-8.1c0-5.9 3-13.1 9-18.7a25 25 0 0 1 16.6-7.7 13 13 0 0 1 5 1 10 10 0 0 1 3.9 2.8z" class="cls-9"/>
        <path d="M127.4 227s-13-6.7-14.2-1l-3.3 17.3c-1.2 5.5-9.3 4.4-8.2-2.2.3-1.7 2.2-13.5 3.2-18s3-11.3 14.9-8c3 .8 13 4.2 13 4.2z" class="cls-6"/>
        <path fill="#121517" d="M286.9 662.2c-1.1 46.8-144.6 26.8-151.4 10.6l-4.2-27.1 136-3.3s19.4 6.4 19.6 9.9 0 9.9 0 9.9"/>
        <path d="M292.5 153.2A293.9 293.9 0 0 0 312 81.3c0-.5 1-2.5 0-3.3s-4.2-39-4.4-39.7c-1-4.3 1.1-10.4 5.8-2.1.9 1.6 5 14.7 5.5 15.8s4.7 5.1 6.7-2c1-4 6.7-23.4 7-25.1 1-4.6 5.1-6.2 5.1.5 0 2.9-3 18.7-3.2 19.8-.6 2.6.1 5.7 3.2 0 1-2 6.6-17.7 6.7-18.2 2.2-6 8.4-2.8 6.2 2.7l-7.2 21.6c-1.1 3 1 4.7 2.9 1.8l8-13.7c1.9-3.4 6.8-4 4.9 2.8-.3 1-10.4 23.6-10.4 23.8s-.6 1.8.7.4c.5-.6 6.4-7.2 6.7-7.7 1.2-1.8 5.2-1.5 3.8 3A225 225 0 0 1 341.2 89c-.4.5-13 44.3-20.2 68.6-2.8 9.7-6.2 18.9-6.6 19.3-1.3 1.6-1 .9-1 .9l-22.8-22.9zM145.5 587.5c0 2 1 9.1 1 9.7s25.8 4.2 26.7 3.3a8.4 8.4 0 0 0 1.4-2.6l-.5-8.7zM237 584.8c-.2.4-2 7.9-1.5 8.7s-12.1 3.5-14.8 3.8a91.4 91.4 0 0 1-10 0l-1.7-11.2z" class="cls-18"/>
        <path fill="#619e1b" d="M150.7 282.6c-.2.3 8.4-16.4 20.4-20.6 0 0 3.4-.6 3.6-2s.4-11.5.5-11.8-20.4 11.5-20.4 11.5-2.8 19.8-4.2 23"/>
        <path d="M310.5 182.8l-23.8-22.7a3.2 3.2 0 0 1-.2-4.3l.6-.8a2.8 2.8 0 0 1 4.1-.2l23.8 22.6a3.2 3.2 0 0 1 .2 4.4l-.6.8a2.8 2.8 0 0 1-4 .2" class="cls-9"/>
        <path d="M140.8 565.4s14.6 9.5 40.7 3.2c3.7-.9 5.8-101.7 1.8-136.4-.2-1.7 0-2.1 1.2-2.3s19.3-2.9 19.6-3.3.5.1.6 1.8 6.4 85.6-.6 134.8c-.1.8-1.8 3-1.2 3.3s22.7 4.3 40-1c0 0 11.5-64.9-2.8-177.9-.3-2-.4-1.9-1.5-1.4s-16.7 3.8-21.5 4-18.3-.2-25.5-.2-12-1.9-16-1.4-2.8 0-13.3-.5-16-.8-19-.6-6.6-1.3-6.9-.8 2 35.4 4.4 41.3 3.2 6.7 3.2 8.9 2 67.3 1.6 68.6-.8 27.1-.8 28.2-2.5 29.2-3.1 30.1-2 1-.9 1.6" class="cls-20"/>
        <path d="M143.8 435.1s-8.7-37.3 19.6-37.7c6-.1 57 1.1 75-10 1.2-.8-32.2 1.6-37.7 2s-19.9-.7-25.4-.8-18.5-1-22.3-1-11.4-.4-12.6-.9-3-.6-3.2-1.1-1.5-.8-1.5-.8.7 40.8 8.1 50.4" class="cls-21"/>
        <path d="M236.2 586c0 .2.7 3 0 3.4s-12.1 2.8-14.6 4.2a4.3 4.3 0 0 1-4.6 0l-.8-7z" class="cls-11"/>
        <path d="M140.4 565s14.7 9.5 41.1 3.6c1.2-.2-.4 20.7-.4 20.7s-5.2 6.2-41.3-2.4c-1.6-.3.6-21.9.6-21.9M203.2 565s24.4 3 41-1.6c1.3-.4 2.8-.2 1.8 2.6s.3 18.1.3 18.1-25.4 5-30.5 5-12.3.6-13.4-1.4-.9-13.6-.1-17a45.8 45.8 0 0 0 1-5.7" class="cls-21"/>
        <path d="M157.8 599.2c.4 0 7.6 51 9.2 52.6 0 0-11.6-.7-15.7 10.6-1 3.1-6.3-14.8-5.8-17.2s1.3-44.1 1-48c0-.6 9.2 1.7 11.3 2" class="cls-3"/>
        <path d="M166.1 651.6s14.9-3.7 22.3 3.7c0 0-13.8-17-13.8-57.4 0-1.4 0 2.4-16.8 1.3l4.2 33.4z" class="cls-2"/>
        <path d="M150.5 662.4s2.4 10.4 18.2 11.8c1.3 0 4.8-9.5.6-18.9a23.6 23.6 0 0 0-3.4-4.7s-13.6 4.1-15.4 11.8" class="cls-22"/>
        <path d="M165.9 650.6s10.1 9.6 2.8 23.6c0 0 13 2.2 20.4-8.7 1-1.5 4-10.6-6.9-13.7s-15.5-1.5-16.3-1.2" class="cls-9"/>
        <path d="M146.4 657.7c5 21.4 20.6 21.8 20.6 21.8s3.4-5 2.3-5.1c-21.5-1.6-23.8-28.4-23.8-28.4z" class="cls-23"/>
        <path d="M167 679.5s18.7 1 21.3-8.8c.2-.5 1.3-3.6.8-5.2 0 0-4.8 7.9-20.5 8.7z" class="cls-24"/>
        <path d="M223 626.5c0 .1 9.6 16 17.3 18.7a162.3 162.3 0 0 1 15.5 7s6.7-16.2 10-16.2c1.3 0-12.6-2.5-16.7-6.6s-15.5-13.3-16.5-13.7-9.6 10.8-9.6 10.8" class="cls-2"/>
        <path d="M252.9 664.4s-19.2-9.7-20-10.4-3.2-18-3.2-18 8.1 7.2 12.7 9.3c3.8 1.8 13.4 6.8 13.4 6.8a64.8 64.8 0 0 0-3 12.3" class="cls-3"/>
        <path d="M255.8 652.1s10 3.1 6.6 16.6c0 0-8.3-2.7-9.5-4.3-.6-.6 2.4-11.6 2.9-12.3" class="cls-22"/>
        <path d="M255.8 652.1s5.8-15.8 10-16.1c.8-.1 20.6 2.7 15.3 21.4-.6 2.3-1.7 7-7.1 10-3.5 1.8-9.6 2-11.7 1.3-.4-.1 4.7-10.1-6.6-16.6" class="cls-9"/>
        <path d="M262.4 668.7s-.7 4.2-1.1 4.5 6.7 2.6 17.2-6.7c.9-.8 2.4-2.4 2.2-7.7 0-1.7-.2 11-18.3 9.9" class="cls-24"/>
        <path d="M231.7 660.4c1 .4 9.5 5 11 5.8s11.8 7.2 18.6 7.2c.3 0 1-4.6 1-4.6s-8.7-3.8-9.2-4.1L232.8 654a2 2 0 0 0-1-.3z" class="cls-23"/>
        <path d="M153 600.7a119.5 119.5 0 0 0 4.6 44.6 4.4 4.4 0 0 0 4.4 3.3c.7 0 12-1.1 13.2-1.4s4.7-1 3.2-4-6-20.4-6.3-43.6c0-2.1.4-4.7-4.1-4.7s-10.9-.9-11.5-.5-3 .7-3.6 6.3" class="cls-20"/>
        <path d="M191.4 235a22.7 22.7 0 0 1-11.4-3l-1-6.6a18.8 18.8 0 0 0 12.4 4.8c10.9 0 19.7-9.4 19.7-21a21.7 21.7 0 0 0-6.3-15.4l.1-.3h.5a7.4 7.4 0 0 0 .8 0 13.7 13.7 0 0 1 5.5 1.6 27.1 27.1 0 0 1 3.9 13.9v.4c-.1 14.2-11 25.7-24.2 25.7" class="cls-9"/>
        <path d="M222 597c0 3.6-2.3 28 26.7 41.6 3.6 1.6 8.5 2.5 10.1.8s4-3.3 4-4 1-1-1-1.8-22.7-13.8-25.3-22.3.3-16.7-.4-17 0-2-2.5-1.5-11.5 1-11.5 4.2" class="cls-20"/>
        <path d="M152.1 614.6a22.1 22.1 0 0 1 11.5-3.2 23.4 23.4 0 0 1 8.5 1.6 1.5 1.5 0 0 0 2-1 1.6 1.6 0 0 0-1-2 26 26 0 0 0-9.5-1.8 24.8 24.8 0 0 0-13 3.6 1.7 1.7 0 0 0-.5 2.2 1.4 1.4 0 0 0 2 .5M152.6 625.4a32.8 32.8 0 0 1 13.4-3.2 19.9 19.9 0 0 1 7.7 1.5 1.5 1.5 0 0 0 2-1 1.7 1.7 0 0 0-.9-2 22.6 22.6 0 0 0-8.8-1.7 35.2 35.2 0 0 0-14.7 3.5 1.7 1.7 0 0 0-.7 2.2 1.5 1.5 0 0 0 2 .7M155.1 637.2l-.4-.5.4.5-.4-.5.4.5a17.7 17.7 0 0 1 3.4-2.4 18.3 18.3 0 0 1 8.7-2.2 17.3 17.3 0 0 1 8.2 2 1.5 1.5 0 0 0 2-.7 1.7 1.7 0 0 0-.7-2.1 20.2 20.2 0 0 0-9.5-2.5 22.2 22.2 0 0 0-14 5.4 1.7 1.7 0 0 0-.2 2.3 1.4 1.4 0 0 0 2.1.2M157 646.4a16.5 16.5 0 0 1 3.7-2.6 22 22 0 0 1 10.2-2.4 27.3 27.3 0 0 1 6.9 1 1.5 1.5 0 0 0 1.8-1.3 1.6 1.6 0 0 0-1-2 30.1 30.1 0 0 0-7.7-1 24.9 24.9 0 0 0-11.8 3 18 18 0 0 0-4.2 3 1.7 1.7 0 0 0 0 2.2 1.4 1.4 0 0 0 2.1 0M243.1 639.8s3-2.1 6-4.7a39.5 39.5 0 0 0 4.2-4 13.3 13.3 0 0 0 1.5-2 4.9 4.9 0 0 0 .7-2.4 1.5 1.5 0 1 0-3 0 3.2 3.2 0 0 1-.4 1 18.6 18.6 0 0 1-2.6 3 64.6 64.6 0 0 1-5.3 4.3l-2 1.5-.6.4-.2.1a1.7 1.7 0 0 0-.4 2.3 1.5 1.5 0 0 0 2 .4M234.7 632.5a16.9 16.9 0 0 0 5.2-2.3 19.2 19.2 0 0 0 7.8-10 1.7 1.7 0 0 0-.9-2.2 1.5 1.5 0 0 0-2 1 16 16 0 0 1-9.5 10l-1 .3-.2.1a1.6 1.6 0 0 0-1.2 2 1.5 1.5 0 0 0 1.8 1.2M225.9 621a1.4 1.4 0 0 0 .4.2h.4a13.2 13.2 0 0 0 2.9-.4 20.3 20.3 0 0 0 6-2.6 12.2 12.2 0 0 0 2.9-2.5 8.8 8.8 0 0 0 1.8-3.6 1.6 1.6 0 0 0-1.1-2 1.5 1.5 0 0 0-1.9 1.2 5.8 5.8 0 0 1-1.7 3 13.8 13.8 0 0 1-5 2.8 20.5 20.5 0 0 1-2.4.6 8.5 8.5 0 0 1-1.5.2l-.1 1 .3-1a2 2 0 0 0-.2 0l-.1 1 .3-1a1.5 1.5 0 0 0-2 1 1.6 1.6 0 0 0 1 2.2zM224.7 607l3.3.2a26.8 26.8 0 0 0 5-.4 8.2 8.2 0 0 0 2.3-.8 4 4 0 0 0 1-.7 3 3 0 0 0 .7-1.3 1.6 1.6 0 0 0-1-2 1.5 1.5 0 0 0-1.9 1.1l.4.1-.3-.2v.1l.3.1-.3-.2.2.1-.2-.1h.2-.2a1.8 1.8 0 0 1-.7.3 10.8 10.8 0 0 1-2.5.5l-3 .1h-3a1.6 1.6 0 0 0-1.6 1.5 1.6 1.6 0 0 0 1.4 1.7" class="cls-9"/>
        <path d="M90.5 604.5s4.8-4.6 7.5-4.2c.6.1 21.8 22.5 39 61 .5 1 3.1-.5 3.1-.5s7-7.4-1-32.4c-1.3-4.2-2-15.2-17-31.3-2.4-2.6-14-10.3-29-.7-3.4 2.2-4 7-2.6 8.1" class="cls-15"/>
        <path fill="#6880a0" d="M90.6 605s5.9-5.7 7.8-4a307 307 0 0 1 38.7 60.7c.3.7 2-.4 2.3-.5s0-.4 0-.4-10.2-39.3-43.4-65.5c-1.5-1.2-8.2 4.2-5.3 9.6"/>
        <path d="M200.5 591.8l16.7-6.6.7-2.6s3-71 2.8-71.5-4-4.7-4-4.7l-9.4 10.5a5.3 5.3 0 0 0 2.5 6.1c1.2.7 1.3 1.5 1.3 2s-4.5 46-10.6 66.8" class="cls-26"/>
        <path d="M219 584.3l-9.4.3s10.1 105.3 10 106.7 9.2 3.6 10.6.5 1.8-8.9 1.8-8.9 4.1-82.5-13-98.7" class="cls-27"/>
        <path d="M80.7 618s-21 60.6 2 99c6 10.2 26.8 24.7 45.2-1.9 1.8-2.5 7.2-12.4 8.5-47 .2-6 0-10.7 0-10.7l-3-12.9-33.2-45S88 601.8 80.7 618" class="cls-1"/>
        <path d="M215.2 507c0 .2 1.4.2 2 3.1l9 .4s.6-4.8-5.7-9.6c-1.2-.9-5.3 6.1-5.3 6.1" class="cls-28"/>
        <path d="M220.8 509.5c.1-.2-1-14-1-14.4 0 0 0-5.6 4.4-5.6 1.9 0-8.7-.6-9.2 0s-.7 25.2-.7 25.2l.5 1.6z" class="cls-29"/>
        <path d="M231.2 484.4c-.7-.5-11.1-3.2-13.3-2.8-11 2-11 10.8-11 14.7s1.1 24.3 1.1 24.3c3-1 12 1.1 12 1.1l13.6-17.8c8.6-12.4-1.7-18.9-2.4-19.5m-4.4 15.1c-1 1-11.7 16.1-11.7 16.1l-.7-19.9s-1.2-6.6 7-5.5c1.3.2 4.9 1.2 4.9 1.2s7 1.6.5 8.1z" class="cls-26"/>
        <path d="M223 524.6l-12.1-.5-2.9-3.5a22.2 22.2 0 0 1 12 1.2c1 .3 3 2.8 3 2.8" class="cls-30"/>
        <path d="M223 524.6s17.7-23 18-24 4-8.6-2.8-15.1c-2.7-2.6-12.9-4-12.9-4H218s10.3 1.2 13 2.7 10.3 8.2 3.3 18.9c-2.4 3.6-14.2 18.6-14.2 18.6zM200.3 509.9c.2-.3-1-14-.9-14.5 0 0 0-5.5 4.4-5.5 1.9 0-8.8-.7-9.3 0S194 515 194 515l.5 1.5z" class="cls-29"/>
        <path d="M210.8 484.8a48 48 0 0 0-13.3-2.8c-11 2-11 10.8-11 14.7s1 24.2 1 24.2c3.1-1 12 1.2 12 1.2s12.3-16 13.7-17.9c8.5-12.3-1.8-18.8-2.4-19.4m-4.4 15c-1 1-11.8 16.2-11.8 16.2L194 496s-1.2-6.6 7-5.5c1.3.2 4.9 1.2 4.9 1.2s7.1 1.6.5 8z" class="cls-26"/>
        <path d="M202.5 525l-12-.5-3-3.5a22.3 22.3 0 0 1 12 1.1c1 .4 3 2.9 3 2.9" class="cls-30"/>
        <path d="M202.5 525s17.8-23.1 18-24 4-8.7-2.7-15.1c-2.8-2.6-13-4-13-4h-7.4s10.4 1.1 13 2.7 10.3 8.2 3.3 18.8a616 616 0 0 1-14.1 18.7z" class="cls-29"/>
        <path d="M226.2 523.4c.8.2 0-12.9 0-12.9s-9.5-1.3-9-.4-.5 12-.5 12c-.4.2 9.2 1.1 9.5 1.3" class="cls-27"/>
        <path d="M217.9 582.6s7-38.3 8.3-59.2l-9.5-1.4s.3 5.4-6.7 51.6c-.2 1.5-1.6 9 7.9 9M286.9 666.5s-.2 11-.4 11.3.4 5.9-2.3 9.4c-1.2 1.5-5.2 17.3-62.4 17.3-7 0-51.6.4-76.9-6.2-.5-.1 1.8-20 1.8-20s9.3 5.2 67.6 4.5c0 0-22.1-22-24-22.9-.2-.1-.1-3-1.3-4.5s-5.2-11.2-6.7-11.2c-.2 0 14.5-35.2 18.7-53.8.3-1.6 2.1-5.9 3.5-5.8l5 .3c.4 0 19.2 12.3 11.2 106 0 1 10.5 2 11-7.3 0-1.2 2-.8 2-.8s50.3 0 53.2-16.3" class="cls-28"/>
        <path d="M146.7 678.3s-10.2-3.4-11.2-5.5-1.2 19.7-1.2 19.7a34.8 34.8 0 0 0 10.6 5.8c.4.1 1.8-20 1.8-20" class="cls-26"/>
        <path d="M80.6 618a35 35 0 0 1 12.8-15.7s23 16 39.3 62.3c1 2.8 3.8 5.5 1.6 31a29 29 0 0 1-1.5 6.3S113 712.4 105 712.4c-.1 0 6.3-20.9 5.6-39.9-1.1-33.7-11-88-30-54.5" class="cls-31"/>
        <path fill="#4e525f" d="M98 666.2c0 28-5.8 50.8-13 50.8s-13-22.8-13-50.8 5.8-50.8 13-50.8 13 22.7 13 50.8"/>
        <path d="M91.1 666.2c0 13.2-2.7 24-6.1 24s-6.2-10.8-6.2-24 2.8-24 6.2-24 6.1 10.7 6.1 24" class="cls-1"/>
        <path d="M312.6 619.6s2.2 39-20.4 65.8c0 0-3.8 26.7-6.2 27.8s29.2-11.7 29.2-11.7 10.6-32.8-2.6-82" class="cls-31"/>
        <path d="M88.8 666.2c0 4.4-1 8-2 8s-2.1-3.6-2.1-8 .9-8 2-8 2 3.5 2 8M73.9 666.7h2.8a.6.6 0 0 0 0-1.1H74a.6.6 0 0 0 0 1.1M75.4 644l2 2.3a.5.5 0 0 0 .7 0 .6.6 0 0 0 0-.8l-2-2.2a.5.5 0 0 0-.7 0 .6.6 0 0 0 0 .8M90.8 684.8l2 2.2a.5.5 0 0 0 .7 0 .6.6 0 0 0 0-.8l-2-2.2a.5.5 0 0 0-.8 0 .6.6 0 0 0 0 .8M92.8 643.3l-2 2.2a.6.6 0 0 0 0 .8.5.5 0 0 0 .8 0l2-2.2a.6.6 0 0 0 0-.8.5.5 0 0 0-.8 0M77.4 684.9l-2 2.2a.6.6 0 0 0 0 .8.5.5 0 0 0 .7 0l2-2.2a.6.6 0 0 0 0-.8.5.5 0 0 0-.7 0M93 666.7h3.2a.6.6 0 0 0 0-1.1H93a.6.6 0 0 0 0 1.1M85.5 706.5v-10.8a.5.5 0 1 0-1 0v10.8a.5.5 0 1 0 1 0M85.5 635.7V624a.5.5 0 1 0-1 0v11.7a.5.5 0 1 0 1 0M135.7 379c-1 1.3-1.4 6.2-.7 7s8.1 2 9.6 2 34.4 2 35.9 1.9 37.5-.6 40-.9c2-.3 15.3-1.9 16.6-1.7s.5-1 1.5-1 5.2.6 2.8-6.5c-1-3-10 .5-12.3.5s-27.3 2.7-30.2 2-21.3-.7-24.3-1-19.8-1-23.8-1-13.6-3.1-15.1-1.3" class="cls-9"/>
        <path d="M101 330.5c-2.3-3-9.4-14 11.7-34.5a385 385 0 0 0 29.1-38.5c.4-.8 6.3-12 7-13.9s5.8-11.8 6.6-12.4 2.5-3 4.8-4.5 6-5.6 11-7c0 0 6.6-2.2 7 3.4.2 1.6.3 2 .8 2s5 1 3.1 5.4c-.7 1.8-1 2.4-.2 2.7 1.1.4 3 3 .6 5.7-.5.6-1 1.4-.6 1.4 1.2 0 2.3 2.4.2 4.8a17.2 17.2 0 0 0-3 1.5 171.6 171.6 0 0 1-19.3 16.9c-.9.6-1.2-.2-1.6 1.1S133 312 123.5 326.4c-1 1.6-12 17.5-22.5 4.1" class="cls-18"/>
      </g>
    </g>
  </g>
</svg>
