<svg xmlns="http://www.w3.org/2000/svg" viewBox="0 0 184.26 1121.62">
  <defs>
    <style>
      .cls-3{fill:none;stroke:#fff;stroke-miterlimit:10;stroke-width:4px}
    </style>
  </defs>
  <g id="Слой_2" data-name="Слой 2">
    <g id="Элементы">
      <path fill="#fff" d="M67.58 328.19a10.4 10.4 0 0 1-10.4-10.4 92.1 92.1 0 0 1 92-92 10.4 10.4 0 0 1 0 20.8A71.29 71.29 0 0 0 78 317.79a10.4 10.4 0 0 1-10.42 10.4z"/>
      <path fill="none" stroke="#fff" stroke-miterlimit="10" stroke-width="7" d="M85.41 972.13a4.49 4.49 0 0 0-4-2.5 4.48 4.48 0 0 0-4 2.51L55.78 1016l-48.31 7a4.51 4.51 0 0 0-2.47 7.69l35 34-8.2 48.13a4.5 4.5 0 0 0 4.43 5.26 4.59 4.59 0 0 0 2.1-.52l43.19-22.76 43.24 22.67a4.57 4.57 0 0 0 2.09.51 4.49 4.49 0 0 0 4.49-4.49 4.86 4.86 0 0 0-.19-1.33l-8.15-47.51 34.93-34.11a4.49 4.49 0 0 0-2.5-7.67l-48.32-7z"/>
      <path d="M45.77 450.34a2.41 2.41 0 0 0-2.16-1.34 2.4 2.4 0 0 0-2.16 1.34l-11.54 23.45-25.85 3.78a2.41 2.41 0 0 0-1.33 4.11l18.73 18.21-4.39 25.76A2.37 2.37 0 0 0 18 528a2.39 2.39 0 0 0 2.53.18L43.67 516l23.14 12.14a2.46 2.46 0 0 0 1.12.27 2.4 2.4 0 0 0 2.41-2.4 2.35 2.35 0 0 0-.11-.71l-4.39-25.45 18.71-18.25a2.41 2.41 0 0 0-1.33-4.11l-25.87-3.73z" class="cls-3"/>
      <path fill="none" stroke="#fff" stroke-miterlimit="10" stroke-width="11" d="M182.75 200.53a121.94 121.94 0 1 0 0 234.51"/>
      <path d="M106.77 3.34A2.41 2.41 0 0 0 104.61 2a2.4 2.4 0 0 0-2.16 1.34L90.91 26.79l-25.85 3.78a2.41 2.41 0 0 0-1.33 4.11l18.73 18.21-4.39 25.76A2.37 2.37 0 0 0 79 81a2.39 2.39 0 0 0 2.53.18L104.67 69l23.14 12.14a2.46 2.46 0 0 0 1.12.27 2.4 2.4 0 0 0 2.41-2.4 2.35 2.35 0 0 0-.11-.71l-4.39-25.45 18.71-18.25a2.41 2.41 0 0 0-1.33-4.11l-25.87-3.73z" class="cls-3"/>
    </g>
  </g>
</svg>
