<svg xmlns="http://www.w3.org/2000/svg" viewBox="0 0 632 107">
  <g fill="#fff" data-name="Слой 2">
    <path fill-rule="evenodd" d="M613.6 88.7a11.3 11.3 0 0 1-8 3.3H26.3A11.3 11.3 0 0 1 15 80.6V26.3a11.3 11.3 0 0 1 3.3-8L7.7 7.7A26.2 26.2 0 0 0 0 26.3v54.3A26.3 26.3 0 0 0 26.3 107h579.4a26.3 26.3 0 0 0 18.5-7.7z"/>
    <path d="M605.7 3A23.4 23.4 0 0 1 629 26.3v54.3a23.4 23.4 0 0 1-23.3 23.4H26.3A23.4 23.4 0 0 1 3 80.6V26.3A23.4 23.4 0 0 1 26.3 3h579.4m0-3H26.3A26.3 26.3 0 0 0 0 26.3v54.3A26.3 26.3 0 0 0 26.3 107h579.4A26.3 26.3 0 0 0 632 80.6V26.3A26.3 26.3 0 0 0 605.7 0z"/>
    <rect width="77" height="602" x="277.5" y="-247.5" stroke="#1b9373" stroke-miterlimit="10" stroke-width="5" rx="11.3" transform="rotate(90 316 53.5)"/>
  </g>
</svg>
