<svg xmlns="http://www.w3.org/2000/svg" viewBox="0 0 570.2 121">
  <defs>
    <style>
      .cls-1{fill:#ffd600}
    </style>
  </defs>
  <g id="Слой_2" data-name="Слой 2">
    <g id="Элементы">
      <path d="M231.7 1.3a2.4 2.4 0 0 0-2.1-1.3 2.3 2.3 0 0 0-2 1.3L216.3 24l-25 3.6a2.3 2.3 0 0 0-1.3 4l18 17.7-4.2 24.9a2.3 2.3 0 0 0 1 2.2 2.3 2.3 0 0 0 1.3.5 2.3 2.3 0 0 0 1.1-.3l22.4-11.8L252 76.5a2.3 2.3 0 0 0 1 .3 2.3 2.3 0 0 0 2.4-2.4 2.1 2.1 0 0 0-.1-.7l-4.2-24.6 18-17.6a2.3 2.3 0 0 0-1.3-4l-25-3.6zM551.3 80.7a1.2 1.2 0 0 0-1-.7 1.1 1.1 0 0 0-1 .7l-5.5 11.2-12.4 1.8a1.2 1.2 0 0 0-.6 2l9 8.7-2.1 12.3a1.1 1.1 0 0 0 .5 1.2 1.1 1.1 0 0 0 1.2 0l11-5.8 11.1 5.8a1.1 1.1 0 0 0 .5.2 1.2 1.2 0 0 0 1.2-1.2 1.3 1.3 0 0 0 0-.3l-2.2-12.2 9-8.8a1.1 1.1 0 0 0-.6-2L557 92zM129.3 19.7a1.2 1.2 0 0 0-1-.7 1.1 1.1 0 0 0-1 .7l-5.5 11.2-12.4 1.8a1.2 1.2 0 0 0-.6 2l9 8.7-2.1 12.3a1.1 1.1 0 0 0 .5 1.2 1.1 1.1 0 0 0 1.2 0l11-5.8 11.1 5.8a1.1 1.1 0 0 0 .5.2 1.2 1.2 0 0 0 1.2-1.2 1.3 1.3 0 0 0 0-.3l-2.1-12.2 9-8.7a1.1 1.1 0 0 0-.7-2L135 30.9zM57.5 92.3a28.7 28.7 0 1 1-28.8-28.8 28.8 28.8 0 0 1 28.8 28.8" class="cls-1"/>
      <path fill="#fff" d="M9.5 94.7A2.5 2.5 0 0 1 7 92.3a21.7 21.7 0 0 1 21.7-21.7 2.5 2.5 0 0 1 0 4.9A16.8 16.8 0 0 0 12 92.3a2.5 2.5 0 0 1-2.5 2.4z"/>
    </g>
  </g>
</svg>
